<?xml version="1.0" encoding="utf-8"?><!--Generator: Adobe Illustrator 23.0.3, SVG Export Plug-In . SVG Version: 6.00 Build 0)--><svg version="1.1" width="130" id="Layer_1" xmlns="http://www.w3.org/2000/svg" x="0" y="0" viewBox="0 0 114.3 30" xml:space="preserve"><style>.st0,.st2{fill-rule:evenodd;clip-rule:evenodd;fill:#3281b7}.st2{fill:#42464b}</style><path class="st0" d="M7.9 18.4c-.8.7-2.3 1.9-3.8 1.9-1.2 0-1.7-.5-1.7-1.9 0-1.3.6-1.9 2.7-2.1l2.8-.3v2.4zm15.6 1.9c-.4-.1-.4-.1-.4-.5v-6.5c0-2.8-1.2-4.5-3.8-4.5-1.9 0-3.3.8-4.5 1.6V3H11l-.2 1.3 1.5.5c.2.1.3.3.3.5v14.5c0 .4 0 .4-.4.5l-.8.1-.8-.1c-.4-.1-.4-.1-.4-.5v-6.6c0-3.4-1.2-4.4-4.7-4.4-2 0-4.8.3-4.8 3.4l2.1.2c0-1.9 1.1-1.9 2.6-1.9 2.2 0 2.5.9 2.5 2.7v1.3l-3.4.3C1.5 15 0 16.2 0 18.7c0 1.3.4 3.4 3.5 3.4 1.9 0 3.3-.8 4.5-1.9h.1l.2 1.6h8.3v-1.3l-1.4-.2c-.4-.1-.4-.1-.4-.5v-7.5c1-.8 2.4-1.6 3.9-1.6 1.8 0 2.1 1.5 2.1 3.3v5.8c0 .3-.1.5-.4.5l-1.2.1v1.4H25v-1.3l-1.5-.2z"/><path class="st0" d="M27.8 18.6c.8.8 2.1 1.6 3.4 1.6 2.4 0 3.3-2 3.3-5.1 0-3.4-1.3-4.5-2.9-4.5a7 7 0 00-3.8 1.5v6.5zm-3.7 8.5v-1.4l1-.2c.3 0 .4-.1.4-.5V11.3c0-.3-.1-.4-.3-.5l-1.4-.5.3-1.3h3.3l.2 1.4h.1c1.4-1 2.8-1.7 4.5-1.7 2.8 0 4.7 1.8 4.7 6.2 0 3.7-1.3 7.2-5.2 7.2-1.4 0-2.6-.3-3.8-1.4V25c0 .4 0 .5.4.5l2.3.2V27h-6.5v.1z"/><path fill-rule="evenodd" clip-rule="evenodd" fill="#c4c6c0" d="M44.3 30h.4V0h-.4z"/><path class="st2" d="M56.8 7.2l-1.2 3.5h2.3l-1.1-3.5zM58 5.5l3.2 9H59l-.7-2.2h-3l-.7 2.2h-2l2.9-9H58zm2.9 5.8c0-2.2 1.2-3.5 3.3-3.5 1.5 0 2.6.9 2.7 2.4l-1.7.2c-.1-.8-.3-1.2-1.1-1.2-.7 0-1.3.3-1.3 1.8s.5 2 1.3 2c.7 0 1.1-.4 1.2-1.2l1.6.3c-.2 1.6-1.4 2.3-2.9 2.3-2.2.2-3.1-1.2-3.1-3.1m10 .4h-.3c-.9 0-1.5.2-1.5.9 0 .4.2.7.8.7.4 0 .9-.2 1.1-.4v-1.2zm1.8 1.1c0 .3.1.5.4.5l.4-.1.1 1.1-1.2.2c-.7 0-1.2-.2-1.3-.8-.4.5-1 .8-1.9.8-1.6 0-1.9-1.1-1.9-1.7 0-2 2-2.3 3.7-2.2v-.2c0-.7-.1-1.2-.9-1.2-.6 0-.9.3-1 .9l-1.6-.3c.2-1.2 1-1.9 2.7-1.9 1.7 0 2.6.7 2.6 2.3v2.6h-.1zm5.1-3.1c-.2-.2-.6-.4-1-.4-.9 0-1.3.8-1.3 1.9 0 1.1.4 1.8 1.2 1.8.4 0 .8-.2 1.1-.5V9.7zm1.9 4.7h-1.6l-.1-.6c-.4.5-1.1.8-1.9.8-1.5 0-2.5-.9-2.5-3.2 0-2.6 1.4-3.5 2.7-3.5.7 0 1.2.2 1.6.5V5.1h1.8v9.3zm4.4-3.9c0-.9-.3-1.3-.9-1.3-.5 0-1.1.3-1.1 1.3h2zm-4 .7c0-2.3 1.4-3.4 3.2-3.4 2 0 2.8 1.2 2.8 3v.8h-3.9c0 1.1.5 1.5 1.3 1.5.7 0 .9-.4 1.1-.9l1.6.4c-.2 1.2-1.2 2-2.7 2-2.6 0-3.4-1.7-3.4-3.4zm8.3 3.2h-1.9V8h1.6l.1.6a3 3 0 012-.7c.8 0 1.3.2 1.6.8.5-.5 1.1-.8 2-.8 1.3 0 1.9.7 1.9 2.1v4.4h-1.9v-4.1c0-.6-.2-.9-.7-.9-.3 0-.8.2-1.1.4v4.7h-1.9v-4.1c0-.6-.2-.9-.7-.9-.4 0-.9.2-1.1.5v4.4m8.1 0h1.9V8h-1.9v6.4zm1-7.3c-.7 0-1.1-.4-1.1-1.1s.4-1.1 1.1-1.1c.7 0 1.1.4 1.1 1.1s-.4 1.1-1.1 1.1zm1.4 4.2c0-2.2 1.2-3.5 3.3-3.5 1.5 0 2.6.9 2.7 2.4l-1.7.2c-.1-.8-.3-1.2-1.1-1.2-.7 0-1.3.3-1.3 1.8s.5 2 1.3 2c.7 0 1.1-.4 1.2-1.2l1.6.3c-.2 1.6-1.4 2.3-2.9 2.3-2.2.2-3.1-1.2-3.1-3.1M59.3 25h-1.1v-4h-4.4v4h-1.1v-8.9h1.1v3.8h4.4v-3.8h1.1V25M64.5 21.2c0-1.1-.4-1.8-1.4-1.8-.8 0-1.7.5-1.7 1.8h3.1zm-4.4.6c0-2.3 1.4-3.3 3-3.3 1.8 0 2.5 1.2 2.5 2.7v.8h-4.3c.1 1.6.8 2.1 1.8 2.1.9 0 1.3-.4 1.5-1.1l1 .2c-.3 1.2-1.2 1.8-2.5 1.8-2.3.2-3-1.4-3-3.2zm9.7.3h-.6c-.9 0-2.1.1-2.1 1.2 0 .5.2 1 1.1 1a2 2 0 001.6-.7v-1.5zm1.1 1.7c0 .3.1.5.4.5l.4-.1v.7l-.9.2c-.6 0-.9-.3-1-.8-.5.5-1.1.8-2 .8-1.6 0-1.9-1.1-1.9-1.7 0-1.7 1.5-2.2 3.3-2.2h.6v-.6c0-.8-.2-1.3-1.3-1.3-.9 0-1.2.3-1.3 1.1l-1-.2c.2-1.2 1-1.7 2.4-1.7 1.6 0 2.3.6 2.3 2.2v3.1zM72.3 25h1.1v-9.3h-1.1zM78.2 24.7c-.3.2-1 .4-1.6.4-1.2 0-1.8-.5-1.8-1.8v-3.8h-1v-.9h1v-1.8l1.1-.2v2h1.8v.9h-1.8v3.6c0 .7.1 1 .9 1 .4 0 .8-.2 1.1-.3l.3.9m5.6.3h-1.1v-4.1c0-.9-.3-1.4-1.2-1.4-.7 0-1.5.5-1.9.8V25h-1.1v-9.3h1.1v3.7c.6-.5 1.3-.9 2.2-.9 1.3 0 1.9.7 1.9 2.2V25m3.6-4.2c1.3 0 2.3-.3 2.3-2 0-1.3-.7-1.8-2.1-1.8H86v3.8h1.3zM86.1 25H85v-9h2.9c2.3 0 3 1.3 3 2.7 0 2.1-1.3 3-3.4 3h-1.4V25zM91.6 25h1.1v-9.3h-1.1zM97.5 22.1h-.6c-.9 0-2.1.1-2.1 1.2 0 .5.2 1 1.1 1a2 2 0 001.6-.7v-1.5zm1.1 1.7c0 .3.1.5.4.5l.4-.1.1.7-.9.2c-.6 0-.9-.3-1-.8-.5.5-1.1.8-2 .8-1.6 0-1.9-1.1-1.9-1.7 0-1.7 1.5-2.2 3.3-2.2h.6v-.6c0-.8-.2-1.3-1.3-1.3-.9 0-1.2.3-1.3 1.1l-1-.2c.2-1.2 1-1.7 2.4-1.7 1.6 0 2.3.6 2.3 2.2v3.1h-.1zm6.6 1.2h-1.1v-4.1c0-.9-.3-1.4-1.2-1.4-.7 0-1.5.5-1.9.8V25h-1.1v-6.4h1l.1.8c.6-.5 1.4-.9 2.3-.9 1.4 0 2 .7 2 2.2V25m5.4-4.6l-1 .2c-.1-.7-.4-1.2-1.3-1.2s-1.2.4-1.2.9c0 .7.5.8 1.4 1 1.2.2 2.3.5 2.3 1.9 0 1.2-.9 1.9-2.5 1.9-1.5 0-2.3-.6-2.5-1.8l1-.3c.2.7.5 1.2 1.6 1.2.8 0 1.3-.2 1.3-.9s-.5-.8-1.4-1c-1-.2-2.3-.4-2.3-1.9 0-1.3 1.1-1.9 2.3-1.9 1.5 0 2.1.7 2.3 1.9m1.2-1.3c0 .3.7.1.7.6 0 .3-.3.4-.5.4s-.5-.1-.5-.4h.3c0 .1.1.2.3.2.1 0 .2 0 .2-.2 0-.3-.7-.1-.7-.6 0-.3.2-.4.5-.4.2 0 .5.1.5.4h-.3l-.2-.2-.3.2M114.3 20.1h-.3V19l-.3 1.1h-.3l-.3-1.1v1.1h-.3v-1.4h.4l.3 1.1.3-1.1h.5v1.4"/></svg>
