<?xml version="1.0" encoding="UTF-8"?><svg width="61" height="61" xmlns="http://www.w3.org/2000/svg" xmlns:xlink="http://www.w3.org/1999/xlink"><defs><path id="a" d="M0 0h27.3v48.6H0z"/><path id="c" d="M0 .1h50.6V60H0z"/></defs><g fill="none" fill-rule="evenodd"><g transform="translate(32.6 11.4)"><mask id="b" fill="#fff"><use xlink:href="#a"/></mask><path d="M18 4.5A25 25 0 010 43.7v4.9A30 30 0 0020.7 0L18 4.5z" fill="#FFA245" mask="url(#b)"/></g><g><mask id="d" fill="#fff"><use xlink:href="#c"/></mask><path d="M48 12.6l2.6-4.2A29.8 29.8 0 000 30.1 30 30 0 0028.8 60v-4.9a25 25 0 1116.2-45l3 2.5z" fill="#004FC0" mask="url(#d)"/></g><path d="M40 33.9c-2-2-4.6-3.3-7.3-3.5a8 8 0 10-5.2 0 11.6 11.6 0 00-10.7 11.5c0 .4.3.8.8.9l24.7.2c.5 0 1-.4 1-1 0-3-1.2-5.9-3.4-8.1" fill="#FFA245"/></g></svg>
