<svg xmlns="http://www.w3.org/2000/svg" width="75" height="82"><g fill="none" fill-rule="evenodd"><text fill="#4A90E2" font-family="Roboto-Medium, Roboto Medium" font-size="60" transform="translate(-1 -12)"><tspan x=".41" y="56">?</tspan></text><path stroke="#4A90E2" stroke-width="5" d="M39.5 47.964c-6.342 0-11.5-5.158-11.5-11.5s5.158-11.5 11.5-11.5S51 30.122 51 36.464s-5.158 11.5-11.5 11.5zm-11.76 6.219c5.93 0 22.783-.028 27.338-.028 4.556 0 5.705-7.655 5.705-15.78V19.572c0-3.649 2.492-7.572 6.144-7.572 3.65 0 5.351 3.923 5.351 7.572v20c0 9.384-1.886 21.342-7.613 25.342-.12.21-.12 4.205 0 11.986 0 1.14-.925 2.064-2.065 2.064H19.065A2.065 2.065 0 0 1 17 76.9V64.914c0-5.927 4.808-10.731 10.74-10.731z"/></g></svg>
