<?xml version="1.0" encoding="UTF-8"?><svg width="16" height="16" viewBox="0 0 16 16" xmlns="http://www.w3.org/2000/svg"><defs><filter id="a"><feColorMatrix in="SourceGraphic" values="0 0 0 0 0.200000 0 0 0 0 0.447059 0 0 0 0 0.803922 0 0 0 1.000000 0"/></filter></defs><g filter="url(#a)" fill="none" fill-rule="evenodd"><g fill="#000" fill-rule="nonzero"><path d="M6.8 12.11l-1.93 1.93c-.8.8-2.1.8-2.9 0-.8-.8-.8-2.1 0-2.9L5.84 7.3c.8-.8 2.1-.8 2.9 0 .26.27.7.27.96 0a.68.68 0 000-.96 3.43 3.43 0 00-4.83 0L1 10.18A3.4 3.4 0 001 15a3.43 3.43 0 004.84 0l1.93-1.92a.68.68 0 000-.97.69.69 0 00-.97 0z"/><path d="M15.04.96a3.3 3.3 0 00-4.66 0L8.15 3.2a.66.66 0 10.93.93l2.23-2.23a1.98 1.98 0 012.8 2.8L10 8.76c-.77.77-2.02.77-2.8 0a.66.66 0 00-.92.93 3.3 3.3 0 004.65 0l4.1-4.09a3.29 3.29 0 000-4.65z"/></g></g></svg>
