<?xml version="1.0" encoding="UTF-8"?><svg width="15" height="17" xmlns="http://www.w3.org/2000/svg" xmlns:xlink="http://www.w3.org/1999/xlink"><defs><path d="M10.3.5c.4 0 .7.4.7.9v.8h3.6c.2 0 .3.1.3.3 0 .2 0 .3-.3.3h-1.8v12c0 .8-.6 1.4-1.3 1.4H3.3c-.7 0-1.2-.6-1.2-1.4v-12H.3c-.2 0-.3-.1-.3-.3 0-.2.1-.3.3-.3h3.5v-.8c0-.5.3-1 .8-1zm1.9 2.3H2.6v12c0 .4.3.8.7.8h8.2c.4 0 .7-.4.7-.8v-12zM4.9 5.1c.1 0 .3.1.3.3v7.8c0 .2-.2.3-.3.3-.2 0-.3-.1-.3-.3V5.4c0-.2.1-.3.3-.3zm2.5 0c.2 0 .3.1.3.3v7.8c0 .2-.1.3-.3.3-.1 0-.3-.1-.3-.3V5.4c0-.2.2-.3.3-.3zm2.6 0c.1 0 .3.1.3.3v7.8c0 .2-.2.3-.3.3-.2 0-.3-.1-.3-.3V5.4c0-.2.1-.3.3-.3zm.3-4H4.6c-.2 0-.2.1-.2.3v.8h6v-.8l-.1-.3z" id="a"/></defs><g fill="none" fill-rule="evenodd"><mask id="b" fill="#fff"><use xlink:href="#a"/></mask><use fill="#404042" xlink:href="#a"/><g mask="url(#b)" fill="#D0021B"><path d="M0 0h15v17H0z"/></g></g></svg>
