<?xml version="1.0" encoding="UTF-8"?><svg width="53" height="35" xmlns="http://www.w3.org/2000/svg"><!--Generator: Sketch 64 (93537) - https://sketch.com--><path d="M45.6 8.2c4 0 6.7 2.6 6.7 8.9 0 5.4-1.8 10.3-7.4 10.3-2 0-3.7-.5-5.4-2v6.2c0 .6 0 .7.6.7l3.3.3v2h-9.1v-2l1.4-.3c.5 0 .6-.1.6-.7V12c0-.4 0-.6-.4-.7l-2-.7.3-1.9h4.7l.3 2v.1c2-1.5 4-2.5 6.4-2.5zM21.1 0v10.6c1.6-1.2 3.7-2.4 6.3-2.4 3.8 0 5.5 2.5 5.5 6.5v9.5c0 .4 0 .5.6.6l2 .2v2h-8.2v-2l1.7-.2c.5 0 .7-.2.7-.7v-8.4c0-2.6-.5-4.7-3-4.7a9.6 9.6 0 00-5.6 2.3v10.9c0 .4 0 .5.6.6l2 .2v2H11.8l-.3-2.4A9 9 0 015 27.4c-4.4 0-5-3-5-5C0 19 2.2 17.3 6.4 17l4.8-.4v-1.9c0-2.6-.5-3.9-3.5-3.9-2.2 0-3.8 0-3.8 2.8l-3-.4c0-4.4 4-4.9 6.8-4.9 5 0 6.7 1.5 6.7 6.4v9.6c0 .4 0 .5.6.6l1.2.1 1.1-.1c.5 0 .6-.2.6-.7V3.3c0-.4-.1-.6-.5-.7l-2.1-.7.3-1.9h5.5zm-9.9 18.7l-4 .4c-3 .3-3.9 1.2-3.9 3 0 2 .8 2.7 2.5 2.7 2.1 0 4.3-1.7 5.4-2.7v-3.4zM45 11a9.4 9.4 0 00-5.5 2.2v9.2c1.2 1.2 3 2.3 4.9 2.3 3.4 0 4.6-2.8 4.6-7.3 0-4.9-1.8-6.4-4-6.4z" fill="#FFF" fill-rule="evenodd"/></svg>
