<?xml version="1.0" encoding="utf-8"?><!--Generator: Adobe Illustrator 22.1.0, SVG Export Plug-In . SVG Version: 6.00 Build 0)--><svg xmlns="http://www.w3.org/2000/svg" viewBox="0 0 220.5 62.9"><path fill="#FFF" d="M142.4 0H180v5.1h-4.9c-5.4 0-6.4.9-6.4 2.7v25.7c0 4.9 5.5 7.4 14.5 7.4 8.9 0 15-2.6 15-9.5V9c0-2.8-1.5-3.8-6.3-3.8h-5V0h33.6v5.1h-5.8c-4.4 0-5.5.9-5.5 3.8V32c0 12.2-13.8 15.4-27.5 15.4s-27.8-3.2-27.8-13.9V8c0-2.2-2.4-2.9-7.1-2.9h-4.4V0zM1.4 41h6.8c2.4 0 4.5-.6 4.5-2.4V7.5c0-1.8-2.1-2.4-4.5-2.4H1.4V0h42.2c21.2 0 35.3 7.8 35.3 23S64.8 46.1 43.6 46.1H1.4V41zm26.1 0h13c12.3 0 21.8-4.2 21.8-17.9S52.8 5.2 41.6 5.2H27.5V41z"/><path fill="#FFF" d="M75.2 41h7.5c3.3 0 4.3-.7 4.3-2.5V7.6c0-1.8-1.1-2.5-4.3-2.5h-7.5V0h39.2c20.7 0 27.4 4.2 27.4 11.4 0 6.1-6.2 9.2-14.8 10.2v.1c8.8 1.3 17.2 3.7 17.2 11.6 0 7.5-6.1 12.8-23.7 12.8H75.2V41zm26.7-21.4H112c8.4 0 15-1 15-7.1 0-6.4-6.7-7.4-15-7.4h-10.1v14.5zm0 21.4h11.8c8.5 0 15.8-1 15.8-8.1 0-7-7.3-8.1-15.8-8.1h-11.8V41z"/><g fill="#FFF"><path d="M0 61.7h.8c.3 0 .6-.1.6-.4v-5.9c0-.3-.3-.4-.6-.4H0v-1h5.2c2.6 0 4.4 1.5 4.4 4.3 0 2.9-1.7 4.4-4.4 4.4H0v-1zm3.2 0h1.6c1.5 0 2.7-.8 2.7-3.4C7.6 55.7 6.4 55 5 55H3.2v6.7zM10.5 62.7v-1c.7 0 1.2-.1 1.4-.7l2.5-7h1.8l2.6 7c.2.6.7.7 1.4.7v1h-4.6v-1h1c.3 0 .4-.1.4-.2l-.1-.3-.4-1.3h-3l-.4 1.3-.1.3c0 .2.2.2.4.2h1v1h-3.9zm5.8-3.8l-1.1-3.2-1 3.2h2.1zM21.1 62.7v-1h.9c.4 0 .6-.1.6-.6v-5.6c0-.4-.2-.6-.7-.6h-.8v-1h4.8v1h-.7c-.6 0-.8.1-.8.6v6.2h2.1c1.4 0 1.7-.7 1.8-2.8h1v3.7h-8.2zM30.2 62.7v-1h.8c.4 0 .6-.1.6-.6v-5.6c0-.4-.2-.6-.7-.6h-.8v-1H35v1h-.7c-.6 0-.8.1-.8.6v6.2h2.1c1.4 0 1.7-.7 1.8-2.8h1v3.7h-8.2zM39.3 62.7v-1c.7 0 1.2-.1 1.4-.7l2.5-7H45l2.6 7c.2.6.7.7 1.4.7v1h-4.6v-1h1c.3 0 .4-.1.4-.2l-.1-.3-.4-1.3h-3l-.3 1.3-.1.3c0 .2.2.2.4.2h1v1h-4zm5.7-3.8l-1.1-3.2-1.1 3.2H45zM56.1 54h.8v3.3H56c-.3-1.4-1.1-2.5-2.7-2.5-1.2 0-1.7.3-1.7 1.2 0 2 5.9.5 5.9 4.2 0 2.1-1.6 2.8-3.5 2.8-1 0-2-.4-2.7-1l-.3.8h-1v-3.6h1c.2 1.8 1.3 2.7 3.1 2.7 1.2 0 1.7-.5 1.7-1.2 0-2.2-5.9-.6-5.9-4.3 0-1.8 1.7-2.6 3.3-2.6 1 0 1.8.5 2.5.9l.4-.7zM62.6 61.7h.9c.4 0 .5-.1.5-.5v-5.8c0-.3-.1-.5-.5-.5h-.9v-1h4.9c2.6 0 3.4.8 3.4 2.2 0 1.2-.8 1.7-1.8 1.9 1.1.2 2.1.7 2.1 2.2 0 1.4-.8 2.4-2.9 2.4h-5.6v-.9zm3.3-4h1.3c1 0 1.9-.2 1.9-1.3 0-1.2-.8-1.4-1.9-1.4h-1.3v2.7zm0 4h1.5c1.1 0 2-.2 2-1.5s-.9-1.5-2-1.5h-1.5v3zM72.3 62.7v-1c.7 0 1.2-.1 1.4-.7l2.5-7H78l2.6 7c.2.6.7.7 1.4.7v1h-4.6v-1h1c.3 0 .4-.1.4-.2l-.1-.3-.4-1.3h-3l-.3 1.3-.1.3c0 .2.2.2.4.2h1v1h-4zm5.7-3.8l-1.1-3.2-1.1 3.2H78zM82.9 62.7v-1h.8c.3 0 .6-.1.6-.4v-5.9c0-.3-.3-.4-.6-.4h-.8v-1H88c2 0 3.1.9 3.1 2.4 0 1.6-1.2 2.4-2.9 2.4h-2.1v2.5c0 .3.3.4.6.4h.8v1h-4.6zm3.2-4.9h1.2c1.2 0 1.9-.4 1.9-1.4 0-1-.5-1.4-1.9-1.4h-1.2v2.8zM100.1 54v3.6h-1V57c0-1.4-.7-2-2.2-2v6.3c0 .3.1.5.5.5h1v1h-4.9v-1h1c.4 0 .5-.1.5-.5V55c-1.5 0-2.2.6-2.2 2v.6h-1V54h8.3zM101 62.7v-1h.7c.5 0 .7-.1.7-.5v-5.7c0-.3-.2-.6-.7-.6h-.7v-1h4.6v1h-.6c-.4 0-.8.1-.8.6V61c0 .4.2.6.6.6h.8v1H101zM112.8 54h.8v3.3h-.9c-.3-1.4-1.1-2.5-2.7-2.5-1.2 0-1.7.3-1.7 1.2 0 2 5.9.5 5.9 4.2 0 2.1-1.6 2.8-3.5 2.8-1 0-2-.4-2.7-1l-.3.8h-.9v-3.6h1c.2 1.8 1.3 2.7 3.1 2.7 1.2 0 1.7-.5 1.7-1.2 0-2.2-5.9-.6-5.9-4.3 0-1.8 1.7-2.6 3.3-2.6 1 0 1.8.5 2.5.9l.3-.7zM123 54v3.6h-1V57c0-1.4-.7-2-2.2-2v6.3c0 .3.1.5.5.5h1v1h-4.9v-1h1c.4 0 .5-.1.5-.5V55c-1.5 0-2.2.6-2.2 2v.6h-1V54h8.3zM128.3 54h4.7v1h-.6c-.7 0-.8.2-.8.5v4.9c0 .9.7 1.4 1.8 1.4s1.9-.5 1.9-1.8v-4.3c0-.5-.2-.7-.8-.7h-.6v-1h4.2v1h-.7c-.6 0-.7.2-.7.7V60c0 2.3-1.7 2.9-3.4 2.9s-3.5-.6-3.5-2.6v-4.8c0-.4-.3-.5-.9-.5h-.6v-1zM141.6 55.6v5.6c0 .3.2.5.5.5h1v1h-4.3v-1h.9c.4 0 .5-.2.5-.5v-5.8c0-.3-.1-.5-.5-.5h-.9v-1h3.9l3.8 6.3v-4.7c0-.4-.2-.6-.7-.6h-.8v-1h4.3v1h-.8c-.5 0-.7.2-.7.5v7.3h-1.9l-4.3-7.1zM150 62.7v-1h.7c.5 0 .7-.1.7-.5v-5.7c0-.3-.2-.6-.7-.6h-.7v-1h4.6v1h-.6c-.4 0-.8.1-.8.6V61c0 .4.2.6.6.6h.8v1H150zM165.2 55h-.3c-.6 0-.9.2-1.1.8l-2.6 6.9h-1.8l-2.6-7c-.2-.6-.5-.7-1-.7h-.4v-1h4.6v1h-.8c-.4 0-.6.1-.6.3l.1.5 1.6 4.8 1.8-4.8.1-.5c0-.2-.3-.3-.6-.3h-.6v-1h4.2v1zM166 62.7v-1h.7c.4 0 .7-.1.7-.9v-5.1c0-.6-.2-.7-.8-.7h-.6v-1h8.7v3.5h-1c-.2-1.8-.4-2.5-2.1-2.5h-2.3v2.7h.7c.8 0 1.1-.4 1.1-1.5V56h1v4.4h-1v-.3c0-1.1-.4-1.5-1.1-1.5h-.7v3.1h2.6c1.2 0 1.7-.7 1.8-2.7h1v3.7H166zM175.9 62.7v-1h.9c.4 0 .5-.1.5-.5v-5.8c0-.3-.1-.5-.5-.5h-.9v-1h5.7c1.9 0 2.8.7 2.8 2.2 0 1.4-1.1 2-2.5 2.1 1.4.2 1.7.8 1.7 1.8 0 1.4.3 1.6.5 1.6.3 0 .4-.3.4-1v-.4h.9v.4c0 1.7-.7 2.3-1.8 2.3-1.3 0-1.7-.7-1.7-1.8 0-2.1-.5-2.6-2-2.6h-.8v2.6c0 .3.1.5.5.5h1v1h-4.7zm3.3-5.1h1.5c1.4 0 1.8-.5 1.8-1.4 0-.8-.5-1.3-1.7-1.3h-1.7v2.7zM192.7 54h.8v3.3h-.9c-.3-1.4-1.1-2.5-2.7-2.5-1.2 0-1.7.3-1.7 1.2 0 2 5.9.5 5.9 4.2 0 2.1-1.6 2.8-3.5 2.8-1 0-2-.4-2.7-1l-.3.8h-.9v-3.6h1c.2 1.8 1.3 2.7 3.1 2.7 1.2 0 1.7-.5 1.7-1.2 0-2.2-5.9-.6-5.9-4.3 0-1.8 1.7-2.6 3.3-2.6 1 0 1.8.5 2.5.9l.3-.7zM194.7 62.7v-1h.7c.5 0 .7-.1.7-.5v-5.7c0-.3-.2-.6-.7-.6h-.7v-1h4.6v1h-.6c-.4 0-.8.1-.8.6V61c0 .4.2.6.6.6h.8v1h-4.6zM208.4 54v3.6h-1V57c0-1.4-.7-2-2.2-2v6.3c0 .3.1.5.5.5h1v1h-4.9v-1h1c.4 0 .5-.1.5-.5V55c-1.5 0-2.2.6-2.2 2v.6h-1V54h8.3zM214 54v1h-1c-.2 0-.3.1-.3.3l.1.3 1.5 2.2 1.6-2.2.1-.3c0-.2-.1-.3-.3-.3h-1v-1h4.2v1h-.2c-.5 0-.8.1-1 .4l-2.7 3.7v2.1c0 .3.1.5.5.5h1.1v1h-5.1v-1h1.1c.4 0 .5-.1.5-.5V59l-2.6-3.6c-.2-.3-.6-.5-1-.5h-.2v-1h4.7z"/></g></svg>
