<?xml version="1.0" encoding="UTF-8"?><svg width="22" height="22" viewBox="0 0 22 22" xmlns="http://www.w3.org/2000/svg"><g transform="translate(1 1)" fill="none" fill-rule="evenodd"><circle stroke="currentColor" stroke-linecap="round" stroke-linejoin="round" cx="10" cy="10" r="10"/><path class="color" d="M10.4 8.34c.26 0 .46.21.46.48v4.22h1.07c.26 0 .47.21.47.48s-.2.48-.47.48H8.87a.47.47 0 01-.47-.48c0-.27.2-.48.47-.48h1.07V9.3H8.87a.47.47 0 01-.47-.48c0-.27.2-.48.47-.48zM9.76 5.6c.41 0 .75.35.75.77 0 .43-.34.77-.75.77a.76.76 0 01-.75-.77c0-.42.33-.77.75-.77z" fill="currentColor" fill-rule="nonzero"/></g></svg>
