<svg xmlns="http://www.w3.org/2000/svg" xmlns:xlink="http://www.w3.org/1999/xlink" width="18" height="20" viewBox="0 0 18 20">
  <defs>
    <path id="contract-a" d="M23.8571429,27.5 L23.8571429,29.0625 C23.8571429,29.5802734 23.4254241,30 22.8928571,30 L11.9642857,30 C11.4317187,30 11,29.5802734 11,29.0625 L11,14.6875 C11,14.1697266 11.4317187,13.75 11.9642857,13.75 L14.8571429,13.75 L14.8571429,25.3125 C14.8571429,26.5187109 15.8664688,27.5 17.1071429,27.5 L23.8571429,27.5 Z M23.8571429,14.0625 L23.8571429,10 L17.1071429,10 C16.5745759,10 16.1428571,10.4197266 16.1428571,10.9375 L16.1428571,25.3125 C16.1428571,25.8302734 16.5745759,26.25 17.1071429,26.25 L28.0357143,26.25 C28.5682813,26.25 29,25.8302734 29,25.3125 L29,15 L24.8214286,15 C24.2910714,15 23.8571429,14.578125 23.8571429,14.0625 Z M28.7175848,12.8504297 L26.0681295,10.2745703 C25.8872935,10.0987666 25.6420332,10.0000013 25.3862991,10 L25.1428571,10 L25.1428571,13.75 L29,13.75 L29,13.5133203 C28.9999987,13.2646899 28.8984115,13.0262425 28.7175848,12.8504297 Z"/>
  </defs>
  <g fill-rule="evenodd" transform="translate(-11 -10)">
    <use fill-rule="nonzero" xlink:href="#contract-a"/>
  </g>
</svg>
