<?xml version="1.0" encoding="UTF-8"?><svg width="20" height="20" viewBox="0 0 20 20" xmlns="http://www.w3.org/2000/svg" xmlns:xlink="http://www.w3.org/1999/xlink"><defs><path d="M.9 0a.9.9 0 00-.9.92v18.16a.9.9 0 101.82 0V.92A.9.9 0 00.89 0zm.92 10c0 .23.09.46.26.64l2.73 2.73a.9.9 0 001.55-.65v-1.81h7.28v1.81a.9.9 0 001.55.65l2.73-2.73a.9.9 0 000-1.28l-2.73-2.73a.9.9 0 00-1.55.65v1.81H6.36V7.28a.9.9 0 00-1.55-.65L2.08 9.36a.9.9 0 00-.26.64zm16.36 0v9.08a.9.9 0 101.82 0V.92a.9.9 0 10-1.82 0V10z" id="a"/></defs><use fill="currentColor" fill-rule="nonzero" xlink:href="#a"/></svg>
