<?xml version="1.0" encoding="UTF-8"?><svg width="23" height="23" viewBox="0 0 23 23" xmlns="http://www.w3.org/2000/svg" xmlns:xlink="http://www.w3.org/1999/xlink"><defs><path id="aWaiver" d="M0 0h19.54v22H0z"/></defs><g fill="none" fill-rule="evenodd"><path d="M11 1.27a.84.84 0 00-.54 0L2.7 3.89a.98.98 0 00-.63.96c.2 10.96 4.87 13.98 8.26 15.75.24.13.53.13.78 0 3.38-1.77 8.06-4.79 8.26-15.75a.98.98 0 00-.63-.95L11 1.27z" fill="#FF8431"/><g transform="translate(1)"><mask id="bWaiver" fill="#fff"><use xlink:href="#a"/></mask><path d="M9.77.49a.67.67 0 00-.22.04l-8.53 2.9c-.32.1-.54.45-.53.82.23 12.6 5.91 15.58 8.96 17.18.2.1.44.1.64 0 3.05-1.6 8.73-4.58 8.96-17.18a.84.84 0 00-.53-.82L9.99.53a.67.67 0 00-.22-.04m0 21.51c-.19 0-.37-.04-.55-.14C4.56 19.41.21 15.6 0 4.26c-.01-.6.34-1.11.86-1.3L9.4.07c.24-.08.5-.08.75 0l8.53 2.9c.52.18.87.72.86 1.3-.2 11.32-4.55 15.15-9.22 17.6-.18.1-.36.14-.55.14" fill="#FF8431" mask="url(#b)"/></g><path d="M10.73 1.26c.09 0 .18.02.27.05l7.75 2.63c.38.13.64.52.63.95-.2 10.96-4.88 13.98-8.26 15.75a.85.85 0 01-.4.1V1.26z" fill-opacity=".25" fill="#FF8431" style="mix-blend-mode:multiply"/><path fill="#FFF" d="M7.89 14.5L6.1 7.73l-.73-.08v-.81h2.83v.81l-.81.12.94 3.93.2.8h.02l.24-.8 1.53-4.86h1.03l1.57 4.94.23.78h.03l.2-.78.96-4-.86-.13v-.81h2.77v.81l-.68.08-1.76 6.75h-1.21l-1.54-4.81-.2-.7h-.03l-.2.7-1.55 4.81z"/></g></svg>
