<?xml version="1.0" encoding="UTF-8"?><svg width="20" height="20" viewBox="0 0 20 20" xmlns="http://www.w3.org/2000/svg"><g fill="#3372CD" fill-rule="evenodd"><path d="M17.42 1.56h-1.8V.62a.63.63 0 00-1.24 0v.94H5.62V.62a.63.63 0 00-1.25 0v.94h-1.8A2.58 2.58 0 000 4.14v13.28A2.58 2.58 0 002.58 20h14.84A2.58 2.58 0 0020 17.42V4.14a2.58 2.58 0 00-2.58-2.58zm1.33 15.86c0 .74-.6 1.33-1.33 1.33H2.58c-.74 0-1.33-.6-1.33-1.33V7.07c0-.1.09-.2.2-.2h17.1c.11 0 .2.1.2.2v10.35z" fill-rule="nonzero"/><path d="M3.5 8.6h3v3h-3zM3.5 13.6h3v3h-3zM8.5 8.6h3v3h-3zM8.5 13.6h3v3h-3zM13.5 8.6h3v3h-3zM13.5 13.6h3v3h-3z"/></g></svg>
