<?xml version="1.0" encoding="UTF-8"?>
<svg width="80px" height="19px" viewBox="0 0 80 19" version="1.1" xmlns="http://www.w3.org/2000/svg" xmlns:xlink="http://www.w3.org/1999/xlink">
    <title>Group 16</title>
    <defs>
        <polygon id="path-1" points="1.67078396e-05 0.122635542 15.4713091 0.122635542 15.4713091 17.4595086 1.67078396e-05 17.4595086"></polygon>
    </defs>
    <g id="Desktop" stroke="none" stroke-width="1" fill="none" fill-rule="evenodd">
        <g id="01---Login" transform="translate(-1062.000000, -716.000000)">
            <g id="Group" transform="translate(1005.000000, 716.000000)">
                <g id="Group-16" transform="translate(57.000000, 0.000000)">
                    <g id="Group-3" transform="translate(0.000000, 0.044443)">
                        <mask id="mask-2" fill="white">
                            <use xlink:href="#path-1"></use>
                        </mask>
                        <g id="Clip-2"></g>
                        <path d="M3.03182127,8.83291683 C3.03182127,5.27180791 5.38979867,2.84165264 8.30130679,2.84165264 C10.6352249,2.84165264 12.0547229,3.94854701 12.8727388,5.60880503 L15.4713091,4.16524769 C14.2442853,1.63835404 11.7658444,0.122618835 8.37348466,0.122618835 C3.34442495,0.122618835 1.67078396e-05,3.80385712 1.67078396e-05,8.83291683 C1.67078396e-05,13.3836311 2.77301684,16.8881004 7.0136336,17.4595086 L7.0136336,14.643068 C4.72315587,14.0277183 3.03182127,11.878756 3.03182127,8.83291683" id="Fill-1" fill="#004FC0" mask="url(#mask-2)"></path>
                    </g>
                    <path d="M15.6400248,13.4250164 L13.0411204,12.1739334 C12.4035492,13.3738904 11.2966549,14.3372644 9.78091965,14.7053382 L9.78091965,17.4766675 C12.5789815,17.0783526 14.5738976,15.5771532 15.6400248,13.4250164" id="Fill-4" fill="#FFA245"></path>
                    <path d="M23.5302519,15.1091833 C21.5089375,15.1091833 20.0411538,13.5212703 20.0411538,11.2834222 C20.0411538,9.04574129 21.5089375,7.45782822 23.5302519,7.45782822 C25.52734,7.45782822 26.9951237,8.99778979 26.9951237,11.2834222 C26.9951237,13.5692218 25.52734,15.1091833 23.5302519,15.1091833 L23.5302519,15.1091833 Z M26.8026494,6.68776389 C26.1528815,5.82162949 24.781335,4.9793873 23.0009476,4.9793873 C19.8727388,4.9793873 17.1779313,7.48172043 17.1779313,11.2834222 C17.1779313,14.9407683 19.7044908,17.5876243 22.9287697,17.5876243 C24.8775721,17.5876243 26.2250594,16.6732042 26.8026494,15.830962 L27.1635387,17.2987457 L29.6416455,17.2987457 L29.6416455,5.26826585 L27.0913609,5.26826585 L26.8026494,6.68776389 Z" id="Fill-6" fill="#004FC0"></path>
                    <path d="M35.6083491,6.92822312 L35.3433628,5.26813218 L32.9374339,5.26813218 L32.9374339,17.2987791 L35.7525378,17.2987791 L35.7525378,11.0186364 C35.7525378,8.92531118 36.7391357,7.79469168 38.2789302,7.79469168 C38.9046388,7.79469168 39.5542396,7.96293963 40.0355925,8.25181817 L40.6370747,5.38826155 C40.1557218,5.14783574 39.505954,4.97942072 38.8082346,4.97942072 C37.4129629,4.97942072 36.2098314,5.6771401 35.6083491,6.92822312" id="Fill-8" fill="#004FC0"></path>
                    <path d="M43.9325791,10.0322223 C44.2934684,8.10731207 45.6409557,7.31335553 47.1327987,7.31335553 C48.7449381,7.31335553 49.9960211,8.27589417 50.2127218,10.0322223 L43.9325791,10.0322223 Z M47.1327987,4.97943742 C43.5474634,4.97943742 41.1173081,7.602067 41.1173081,11.3075317 C41.1173081,14.9408184 43.4512262,17.5876744 47.1566909,17.5876744 C49.899784,17.5876744 51.7526834,16.2881386 52.6428771,14.3872877 L50.308959,13.3046197 C49.7555953,14.3632284 48.8411753,15.1092335 47.3254401,15.1092335 C45.5443844,15.1092335 44.1728378,14.1948134 43.8846276,12.0293103 L52.9554808,12.0293103 C53.0279928,11.7167066 53.0517179,11.2833053 53.0517179,10.9466423 C53.0517179,7.74625565 51.0307377,4.97943742 47.1327987,4.97943742 L47.1327987,4.97943742 Z" id="Fill-10" fill="#004FC0"></path>
                    <path d="M62.9684222,10.7060828 C64.7733701,8.78117265 65.9039896,7.19325958 65.9039896,4.93135226 C65.9039896,2.23637774 63.7144272,0.167111811 60.8512048,0.167111811 C57.795508,0.167111811 56.0630721,2.06796272 55.5093743,4.42594011 L58.2043488,5.26818231 C58.469001,3.92086212 59.3354695,2.9342642 60.6345041,2.9342642 C61.9098135,2.9342642 62.9443629,3.87257647 62.9443629,5.21989665 C62.9443629,6.61566957 61.8374685,7.81880109 60.0811404,9.719652 L55.4133042,14.7724368 L55.4133042,17.2988293 L66.2169274,17.2988293 L66.2169274,14.6761997 L59.2392324,14.6761997 L62.9684222,10.7060828 Z" id="Fill-12" fill="#FFA245"></path>
                    <path d="M73.8118602,14.9649446 C72.1273758,14.9649446 70.9725299,13.593398 70.9725299,11.8609621 C70.9725299,10.1525855 72.1273758,8.78103899 73.8118602,8.78103899 C75.4960104,8.78103899 76.6750826,10.1525855 76.6750826,11.8609621 C76.6750826,13.593398 75.4960104,14.9649446 73.8118602,14.9649446 M74.389116,6.39883522 C73.9802752,6.39883522 73.547208,6.44728796 73.0900815,6.6155359 L77.3489098,0.455856694 L73.9802752,0.455856694 L69.5770912,7.52995596 C68.5903262,9.06991753 68.0130703,10.5134749 68.0130703,11.93314 C68.0130703,15.1574189 70.5874142,17.5875741 73.8118602,17.5875741 C77.1322091,17.5875741 79.6586016,15.1091332 79.6586016,11.8367358 C79.6586016,8.66074254 77.2526727,6.39883522 74.389116,6.39883522" id="Fill-14" fill="#FFA245"></path>
                </g>
            </g>
        </g>
    </g>
</svg>