<?xml version="1.0" encoding="UTF-8"?><svg width="35" height="40" xmlns="http://www.w3.org/2000/svg" xmlns:xlink="http://www.w3.org/1999/xlink"><defs><path id="a" d="M.3 0h25.4v32.7H.3z"/><path id="c" d="M.4.1h30.1v31.3H.4z"/></defs><g fill="none" fill-rule="evenodd"><path d="M6.4 5.7l-2-.5.3-.2c1.1-.7 2-1.2 3.4-1.8h.2l1.4 2.7h-.2A15 15 0 005.9 8l-.5.4 1-2.7" fill="#FFFFFE"/><path d="M8.4 3H8C6.6 3.7 5.7 4.2 4.6 5l-.6.4 2.2.5-1 3 .8-.7a15 15 0 013.6-2l.3-.1-.2-.3-1.2-2.5-.1-.3zm-.2.3l1.2 2.5c-1.3.5-2.8 1.4-3.6 2l.8-2.2-1.8-.4 3.4-1.9z" fill="#A2A5A2"/><path d="M28.3 5.7l2-.5L30 5c-1.1-.7-2-1.2-3.5-1.8L25 5.8h.2c1.4.6 3 1.5 3.6 2.1l.4.4-.9-2.7" fill="#FFFFFE"/><path d="M26.3 3l-.1.2L25 5.7l-.2.3.3.1a15 15 0 013.6 2l.9.8-1-3 2-.6-.5-.4c-1.2-.7-2-1.2-3.5-1.9h-.3zm.2.3c1.5.7 2.2 1.2 3.4 1.9l-1.8.4L29 8c-.8-.7-2.3-1.6-3.6-2l1.2-2.6z" fill="#A2A5A2"/><path d="M27 5.6a21.4 21.4 0 00-19.3 0h-.1L6.3 3.2V3a23 23 0 0121.9-.1l-1 2.8-.2-.1" fill="#FFFFFE"/><path d="M17.4 0C12.2 0 8 1.9 6.3 2.9L6 3l1.6 2.9.2-.2a21.2 21.2 0 0119.2 0l.3.2 1.2-3-.3-.1C27.5 2.3 23.3 0 17.4 0zm0 .4c5 0 9 1.7 10.7 2.6l-1 2.4a21.7 21.7 0 00-19.5 0L6.6 3.2a23 23 0 0111-2.7z" fill="#A2A5A2"/><path d="M8 4.8l-.1-.3h.5l.2-.1V4L8.3 4H8a1 1 0 01-.3-.2c-.1 0-.2 0-.2-.2v-.3l.2-.3a1.6 1.6 0 01.5 0v.2L8 3.1h-.2-.1l-.1.2v.2c0 .1.1.2.3.2h.5l.2.3v.3c0 .2-.1.3-.2.3a1.5 1.5 0 01-.5.2M9.8 4l.2-.4v-.5a1 1 0 00-.4-.5.4.4 0 00-.4 0l-.3.3.1.5c0 .2.2.4.3.5h.5zm0 0h-.6a1 1 0 01-.4-.5 1 1 0 010-.7l.4-.4h.6c.2.1.3.3.4.6v.6c0 .2-.2.4-.4.4zM11.8 3.4l-1.2.3v-.1h.2l-.4-1.4h-.2l.5-.2-.1.1.4 1.4.6-.2V3l.2.3M14 2.8h.2l.3-.2.2-.1.1-.6c0-.4-.3-.6-.8-.6h-.2l.2 1.5zm-.3.1l.1-.1-.2-1.4h-.2v-.1l.7-.1.6.1c.2.1.3.3.3.6v.6l-.6.3-.7.1zM16.5 2.6l-1.2.1v-.1h.2l-.1-1.4h-.2V1l1-.1.1.3h-.1V1h-.6v.7h.5v-.2.4-.1h-.4v.7h.6v-.3h.1v.3M17.3 2.6c.2 0 .3-.1.4-.3l.2-.5c0-.2 0-.4-.2-.5 0-.2-.2-.3-.4-.3l-.3.2-.2.6c0 .2 0 .4.2.5 0 .2.2.3.3.3zm0 0c-.2 0-.4 0-.5-.2a1 1 0 01-.2-.6c0-.3 0-.5.2-.6.1-.2.3-.3.5-.3.3 0 .5.1.6.3l.2.6c0 .3 0 .5-.2.6-.1.2-.3.3-.6.3zM20.3 2.8h-.6a.7.7 0 01-.5-.3.9.9 0 01-.2-.7l.3-.6c.1-.1.3-.2.6-.1a2 2 0 01.5.1v.3h-.1v-.2H20l-.2-.1-.4.1a1 1 0 00-.2.6v.5c.2.2.3.3.5.3h.2v-.5H20V2l.5.1v.1l-.1.6M21.7 3l-1.2-.2h.2l.2-1.5h-.1.5v.1h-.1l-.3 1.4h.6v-.1h.2V3M22.5 3.1h.4l.3-.6V2l-.4-.2h-.4a1 1 0 00-.2.6v.5c0 .2.2.3.3.3zm0 .1A.7.7 0 0122 3a1 1 0 010-.7c0-.2.1-.4.3-.5.1-.2.3-.2.6-.1.2 0 .4.1.5.3v.7c0 .2-.2.4-.3.5-.2.2-.4.2-.6.1zM24 2.7h.4c.1 0 .2 0 .2-.2v-.3l-.3-.1-.3.6zm0 .1l-.2.6h.2v.2l-.6-.2h.2L24 2h-.2v-.2l.6.2.4.2v.4l-.1.2-.3.1.2.8h.1v.1h-.3l-.3-1H24zM25.7 2.6l-.5 1.3h.1V4l-.5-.1v-.1h.2l.5-1.3h-.2v-.2l.6.2v.1h-.2M12.1 1.7l.3 1.3h.2v.1l-.5.1.1-.1-.3-1.4h-.2l.5-.2v.1h-.1M26 3.7l.5.2v-.8l-.5.6zm0 0l-.4.3.2.1v.1l-.4-.1V4l1.3-1.2h.1V4.8l-.5-.2v-.1h.2V4l-.6-.2z" fill="#001121"/><path d="M27.8 19.7V6.2l-.8.3c-1 .3-2.5.5-4 .5-2.8 0-4.7-.6-5.3-1.2l-.4-.4-.5.4c-.6.6-2.5 1.2-5.2 1.2-1.5 0-2.9-.2-4-.5l-.8-.3v13.5c0 .4-.2 6.2 4 9.8 2.9 2.5 6 4.1 6.2 4.2l.3.1.3-.1a33 33 0 006.3-4.2c4-3.6 4-9.4 4-9.8" fill="#8D1830"/><path d="M27.2 7c-1 .4-2.6.7-4.2.7-2.7 0-4.9-.6-5.7-1.4-.9.8-3 1.4-5.7 1.4-1.6 0-3-.3-4.2-.6v12.6s-.2 5.9 3.8 9.3c2.9 2.5 6.1 4.1 6.1 4.1s3.2-1.6 6.2-4c4-3.5 3.7-9.4 3.7-9.4V7.1" fill="#001121"/><path d="M17.3 33l-1.8-1.1V17.7H7.6v-3.5h7.9V7.4c.8-.2 1.4-.5 1.8-.8.4.3 1 .5 1.7.8v6.8h8v3.5h-8V32l-1.7 1" fill="#8D1830"/><g transform="translate(1.3 6.6)"><mask id="b" fill="#fff"><use xlink:href="#a"/></mask><path d="M16 0c-.4.4-1.1.7-2 1v6.4H6.3v4H14v14l2 1.2 1.9-1V11.2h7.8V7.4h-7.8V1c-.9-.2-1.5-.5-2-.9zm0 .2c.3.3.9.6 1.5.7v6.9h8v3.1h-8v14.4l-1.5.8-1.7-.9V10.9H6.5V7.8h7.8V1C15 .8 15.6.5 16 .2z" fill="#FFFFFE" mask="url(#b)"/><path d="M22.4 32.8c-10.4-.2-19-7.6-21.3-16a20 20 0 011-14.2h.2c-2.1 4-2.2 9-.9 13.8a22 22 0 0021 15.7s.3.1.2.3c0 .3-.2.4-.2.4" fill="#001121" mask="url(#b)"/></g><path d="M2.3 12S1 11 1.8 9.2l.4.9s.6.9.1 1.7" fill="#001121"/><path d="M2.3 11.7s-1.2-.6-.4-2.2c0 0-.3.6-.2 1 0 0 0 .5.6 1.2" fill="#FFFFFE"/><path d="M2.3 12s1.7.6 3.1-1.4c0 0-.7.3-1.2.3 0 0-1.4 0-1.9 1.1" fill="#001121"/><path d="M2.5 12s1.5.5 2.7-1.3c0 0-.5.6-1 .9 0 0-.6.3-1.7.3" fill="#FFFFFE"/><path d="M1.8 14s-1.4-.7-.8-2.8l.5 1s.8.8.3 1.8" fill="#001121"/><path d="M1.7 13.8s-1.2-.6-.6-2.3c0 0-.2.6 0 1 0 0 0 .6.6 1.3" fill="#FFFFFE"/><path d="M2 14.1s1.8.4 3-1.9l-1.2.5S2.3 12.9 2 14" fill="#001121"/><path d="M2.2 14s1.6.4 2.6-1.6c0 0-.4.7-1 1 0 0-.5.4-1.6.6" fill="#FFFFFE"/><path d="M1.7 19.1S0 18.7 0 16.4l.8.8s1 .8.8 2" fill="#001121"/><path d="M1.5 19S.1 18.5.2 16.5c0 0 0 .7.3 1.2 0 0 .2.5 1 1.1" fill="#FFFFFE"/><path d="M1.8 19.3s2.2 0 2.9-2.7l-1.2.7s-1.5.6-1.7 2" fill="#001121"/><path d="M2 19.1s1.9 0 2.5-2.3c0 0-.3.9-.8 1.3 0 0-.5.6-1.6 1" fill="#FFFFFE"/><path d="M1.6 16.3S.1 15.8.4 13.7c0 0 .3.6.6.8 0 0 .9.8.6 1.8" fill="#001121"/><path d="M1.5 16.1S.2 15.7.5 14c0 0-.1.7.1 1.1 0 0 .2.6.9 1.1" fill="#FFFFFE"/><path d="M1.8 16.5s2 .1 2.7-2.4l-1.1.7s-1.4.5-1.6 1.7" fill="#001121"/><path d="M2 16.3s1.7.2 2.3-2c0 0-.3.8-.7 1.2 0 0-.5.5-1.6.8" fill="#FFFFFE"/><path d="M2.1 22s-2-.2-2.1-2.8c0 0 .5.6 1 .9 0 0 1.2.7 1.1 1.9" fill="#001121"/><path d="M2 21.8S.2 21.6 0 19.5c0 0 .2.8.5 1.2 0 0 .4.6 1.3 1.1" fill="#FFFFFE"/><path d="M2.2 22.1S4.6 22 5 18.7l-1.2 1s-1.6 1-1.5 2.4" fill="#001121"/><path d="M2.4 21.9s2-.2 2.3-2.9c0 0-.2 1-.6 1.6 0 0-.5.6-1.7 1.3" fill="#FFFFFE"/><path d="M2.8 25s-2 0-2.6-2.6l1.2.8s1.4.6 1.4 1.8" fill="#001121"/><path d="M2.6 24.8S1 24.8.4 22.7c0 0 .3.8.7 1.2 0 0 .5.5 1.5 1" fill="#FFFFFE"/><path d="M3.2 25.1s2.3-.6 2-3.9l-1 1.3s-1.4 1.1-1 2.6" fill="#001121"/><path d="M3.3 24.8s2-.5 1.8-3.2c0 0 0 1-.3 1.6 0 0-.4.8-1.5 1.6" fill="#FFFFFE"/><path d="M4.4 28s-2.2.4-3.5-2.3l1.4.6s1.7.3 2 1.7" fill="#001121"/><path d="M4.1 27.8s-1.9.4-2.9-1.9c0 0 .5.8 1 1.2 0 0 .6.5 1.9.7" fill="#FFFFFE"/><path d="M4.7 28s2.4-1.1 1.4-4.6c0 0-.4 1-.9 1.5 0 0-1.2 1.6-.5 3.1" fill="#001121"/><path d="M4.8 27.7s2.1-1 1.2-4c0 0 .2 1.2 0 2 0 0-.2.9-1.2 2" fill="#FFFFFE"/><path d="M6.2 30.5s-2.1.7-3.7-1.9c0 0 .9.4 1.4.4 0 0 1.7.2 2.3 1.5" fill="#001121"/><path d="M6 30.4S4 31 2.7 28.8c0 0 .6.8 1.2 1 0 0 .6.5 2 .6" fill="#FFFFFE"/><path d="M6.6 30.5s2.2-1.4.7-4.7l-.6 1.6s-1 1.7-.1 3.1" fill="#001121"/><path d="M6.6 30.2s2-1.2.7-4c0 0 .4 1 .3 1.8 0 0-.1 1-1 2.2" fill="#FFFFFE"/><path d="M3 10.4s-.5-1.6 1.6-2.6l-.4 1S4 10 3 10.4" fill="#001121"/><g transform="translate(2.6 7.9)"><mask id="d" fill="#fff"><use xlink:href="#c"/></mask><path d="M.4 2.3S0 1 1.8.1L1 1s-.4.5-.5 1.4" fill="#FFFFFE" mask="url(#d)"/><path d="M8.4 31.5c10.4-.2 19-7.7 21.3-16a20.1 20.1 0 00-1-14.2h-.2c2.1 4 2.2 9 .9 13.8a22 22 0 01-21 15.7s-.3.1-.2.3l.2.4" fill="#001121" mask="url(#d)"/></g><path d="M32.4 12s1.4-.9.5-2.7l-.4.9s-.6.9 0 1.7" fill="#001121"/><path d="M32.5 11.7s1.1-.6.4-2.2c0 0 .2.6.1 1 0 0 0 .5-.5 1.2" fill="#FFFFFE"/><path d="M32.4 12s-1.7.6-3-1.4c0 0 .6.3 1.1.3 0 0 1.4 0 2 1.1" fill="#001121"/><path d="M32.2 12s-1.4.5-2.6-1.3c0 0 .5.6 1 .9 0 0 .5.3 1.6.3" fill="#FFFFFE"/><path d="M33 14s1.3-.7.7-2.8l-.5 1s-.7.8-.3 1.8" fill="#001121"/><path d="M33 13.8s1.2-.6.7-2.3v1s-.1.6-.7 1.3" fill="#FFFFFE"/><path d="M32.8 14.1s-2 .4-3.1-1.9l1.2.5s1.5.2 2 1.4" fill="#001121"/><path d="M32.6 14s-1.7.4-2.7-1.6c0 0 .5.7 1 1 0 0 .5.4 1.7.6" fill="#FFFFFE"/><path d="M33 19.1s1.8-.4 1.6-2.7l-.7.8s-1 .8-.8 2" fill="#001121"/><path d="M33.2 19s1.4-.4 1.3-2.4c0 0 0 .7-.3 1.2 0 0-.2.5-1 1.1" fill="#FFFFFE"/><path d="M32.9 19.3s-2.2 0-2.9-2.7c0 0 .7.5 1.3.7 0 0 1.5.6 1.6 2" fill="#001121"/><path d="M32.7 19.1s-1.9 0-2.4-2.3c0 0 .2.9.7 1.3 0 0 .5.6 1.7 1" fill="#FFFFFE"/><path d="M33.1 16.3s1.6-.5 1.3-2.6l-.7.8s-.9.8-.6 1.8" fill="#001121"/><path d="M33.2 16.1s1.3-.4 1.1-2.2c0 0 0 .7-.2 1.1 0 0-.2.6-.9 1.1" fill="#FFFFFE"/><path d="M33 16.5s-2 .1-2.8-2.4l1.2.7s1.4.5 1.6 1.7" fill="#001121"/><path d="M32.8 16.3s-1.7.2-2.4-2c0 0 .3.8.8 1.2 0 0 .5.5 1.6.8" fill="#FFFFFE"/><path d="M32.6 22s2-.2 2.1-2.8c0 0-.5.6-1 .9 0 0-1.2.7-1 1.9" fill="#001121"/><path d="M32.8 21.8s1.6-.2 1.8-2.3c0 0-.1.8-.5 1.2 0 0-.3.6-1.3 1.1" fill="#FFFFFE"/><path d="M32.5 22.1s-2.3-.2-2.6-3.4c0 0 .6.7 1.2 1 0 0 1.5 1 1.4 2.4" fill="#001121"/><path d="M32.3 21.9s-2-.2-2.2-2.9c0 0 .1 1 .6 1.6 0 0 .4.6 1.6 1.3" fill="#FFFFFE"/><path d="M31.9 25s2 0 2.6-2.6l-1.1.8s-1.4.6-1.5 1.8" fill="#001121"/><path d="M32.1 24.8s1.7 0 2.2-2.1c0 0-.2.8-.7 1.2 0 0-.4.5-1.5 1" fill="#FFFFFE"/><path d="M31.6 25.1s-2.4-.6-2-3.9l1 1.3s1.3 1.1 1 2.6" fill="#001121"/><path d="M31.4 24.8s-2-.5-1.7-3.2c0 0 0 1 .3 1.6 0 0 .3.8 1.4 1.6" fill="#FFFFFE"/><path d="M30.4 28s2.2.4 3.4-2.3l-1.4.6s-1.6.3-2 1.7" fill="#001121"/><path d="M30.6 27.8s1.9.4 3-1.9c0 0-.5.8-1 1.2 0 0-.7.5-2 .7" fill="#FFFFFE"/><path d="M30 28s-2.4-1.1-1.3-4.6c0 0 .4 1 .8 1.5 0 0 1.3 1.6.5 3.1" fill="#001121"/><path d="M29.9 27.7s-2-1-1.2-4c0 0-.2 1.2 0 2 0 0 .2.9 1.2 2" fill="#FFFFFE"/><path d="M28.5 30.5s2.2.7 3.7-1.9c0 0-.8.4-1.4.4 0 0-1.7.2-2.3 1.5" fill="#001121"/><path d="M28.8 30.4s1.8.6 3.1-1.6c0 0-.5.8-1.1 1 0 0-.7.5-2 .6" fill="#FFFFFE"/><path d="M28.2 30.5s-2.3-1.4-.8-4.7l.6 1.6s1.1 1.7.2 3.1" fill="#001121"/><path d="M28.1 30.2s-2-1.2-.7-4c0 0-.3 1-.2 1.8 0 0 0 1 .9 2.2" fill="#FFFFFE"/><path d="M31.8 10.4s.5-1.6-1.7-2.6l.4 1s.2 1.2 1.3 1.6" fill="#001121"/><path d="M31.7 10.2S32 8.9 30.3 8l.9.8s.4.5.5 1.4M17.3 6.3c-.9.8-3 1.4-5.7 1.4-1.6 0-3-.3-4.2-.6v12.6s-.2 5.9 3.8 9.3c2.9 2.5 6.1 4.1 6.1 4.1s3.2-1.6 6.2-4c4-3.5 3.7-9.4 3.7-9.4V7.1c-1 .3-2.6.6-4.2.6-2.7 0-4.9-.6-5.7-1.4zm0 .6c1 .8 3.2 1.2 5.7 1.2a15 15 0 003.7-.4v12s.2 5.7-3.5 9c-2.5 2-5.1 3.5-5.9 3.9a33 33 0 01-5.8-4c-3.8-3.2-3.6-8.8-3.6-8.9v-12c1 .3 2.4.4 3.7.4 2.4 0 4.6-.4 5.7-1.2z" fill="#FFFFFE"/><path fill="#001121" d="M12 36.9H6.8L8.4 35l-1.6-1.7H12v3.5"/><path d="M7.3 36.7h4.5v-3.1H7.3L8.6 35l-1.3 1.6zm5 .4H6.3l1.7-2-1.7-2h5.8v4z" fill="#A2A5A2"/><path fill="#001121" d="M22.7 36.9h5.2L26.3 35l1.6-1.7h-5.2v3.5"/><path d="M22.9 36.7h4.6L26 35.1l1.4-1.5h-4.6v3.1zm5.4.4h-5.8v-4h5.8l-1.7 2 1.7 2z" fill="#A2A5A2"/><path fill="#001121" d="M10.5 35.8H24v-4.1H10.5z"/><path d="M10.8 35.7H24v-3.8h-13v3.8zm-.4.4h13.9v-4.5H10.4V36z" fill="#A2A5A2"/><path d="M13.8 34.7v-.1l-.1-.3V32.7l-.9.3v.2h.2a4.6 4.6 0 01.4-.2V34.7H13v.1a18 18 0 011 0v-.1h-.2M15.7 33.8l.4.3.1.2v.3l-.4.1h-.3v-.4-.3l.2-.2zm.2-.2l-.3-.2V33 33h.5v.5l-.2.2zm.2 0l.3-.2v-.3l-.1-.3a.6.6 0 00-.4-.1c-.2 0-.4 0-.5.2l-.2.4.1.3.2.1c-.2.2-.4.4-.4.6l.2.4.5.2c.2 0 .4 0 .5-.2.2-.2.2-.3.2-.5v-.3l-.4-.3zM18.8 33.4l-.1.3-.3.1-.3-.1v-.4-.2l.1-.2a.3.3 0 01.5 0v.5zm-.4-.7c-.2 0-.3 0-.5.2l-.2.5c0 .2 0 .4.2.5l.4.2h.2l.2-.2v.3l-.4.4-.4.2a1.4 1.4 0 00.8-.3 1.3 1.3 0 00.4-1c0-.2 0-.4-.2-.6a.6.6 0 00-.5-.2zM20.9 33.8l.4.3.1.2-.1.3-.3.1h-.3l-.1-.4V34l.3-.2zm-.1-.9h.4l.1.3v.2l-.2.2-.4-.2V33 33zm.8 1l-.4-.3c.2 0 .3-.1.3-.2l.1-.3s0-.2-.2-.3a.6.6 0 00-.4-.1c-.2 0-.3 0-.4.2-.2 0-.2.2-.2.4v.3l.3.1c-.3.2-.4.4-.4.6 0 .2 0 .3.2.4l.4.2c.2 0 .4 0 .6-.2l.2-.5-.1-.3z" fill="#FFFFFE"/></g></svg>
