<?xml version="1.0" encoding="UTF-8"?><svg width="223" height="159" xmlns="http://www.w3.org/2000/svg" xmlns:xlink="http://www.w3.org/1999/xlink"><defs><path id="a" d="M.1.6h11.8V6H.1z"/></defs><g fill="none" fill-rule="evenodd"><path fill="#049CDB" d="M28 27.9l3.6-6.9 8.4 6.4L34.6 38zM186.6 75.3l8.4-.3-2.2 10.5-12.8.5z"/><path fill="#22BBB8" d="M42 60.8l5.2-.8.8 3.2-3.5 2.8zM89 43.7l5.2-.7.8 3.2-3.5 2.8zM206 23.7l5.2-.7.8 3.2-3.5 2.8zM178 153.8l5.2-.8.8 3.2-3.5 2.8zM161 118.8l5.2-.8.8 3.2-3.5 2.8zM3 35.7l5.2-.7.8 3.2L5.5 41zM209 132.7l5.2-.7.8 3.2-3.5 2.8zM6 129.2L.8 128l-.8 5.4 3.5 4.6z"/><path fill="#F06478" d="M72.6 65.3L72 62l4.4 1.6.6 4.4zM15.6 72.3L15 69l4.4 1.6.6 4.4zM219.8 64.7l3-1.7.2 3.8-4 2.2zM59.8 97.7l3-1.7.2 3.8-4 2.2zM159.5 51.5L163 50l-.3 4.1L158 56z"/><path fill="#FFE04F" d="M143.6 29.2l-.6-5 5.3-.2.7 6zM200 116.9l4.4-1.9 1.6 4.8-5.3 2.2zM48 125.9l4.4-1.9 1.6 4.8-5.3 2.2zM146 75.9l4.4-1.9 1.6 4.8-5.3 2.2z"/><path fill="#049CDB" d="M62 2l4 3.3L60.1 9 54 4z"/><g transform="translate(117)"><mask id="b" fill="#fff"><use xlink:href="#a"/></mask><path fill="#049CDB" mask="url(#b)" d="M8-2.8l4 4.2L6.1 6 0-.3z"/></g><path fill="#049CDB" d="M178 16l4 3.4-6 3.6-6-5.2zM199 57l-4-.6 1.9-5.4 6.1.8zM33 96.1L30 99l-3-4.5 4.6-4.5z"/><path fill="#22BBB8" d="M86 22.3l8.6-9.3 6.4 5.2L98.7 29z"/><path fill="#F06478" d="M.2 86.5L0 81l6.7 2.7L7 91z"/><g fill-rule="nonzero"><path d="M146 135.7c-7 0-21 9-28 9s-14.8-5.4-14.8-5.4 9.4 1.8 14.9 1.8c5.4 0 7-2 7-4.5 0-6.3-10.4-7.3-15.7-8-5.1-3-10.6-4.9-19.1-5.6l-.3 1.5-7 25.4c8 3.7 24.4 9.1 31.6 9.1 10.5 0 38.4-14.3 38.4-18 0-3.5-3.5-5.3-7-5.3z" fill="#FFCC80"/><path d="M81.9 153H71.8a2.7 2.7 0 01-2.8-2.7v-30.6c0-1.5 1.2-2.7 2.8-2.7 12.9 0 18.9 4.4 19.1 4.6.9.6 1.3 1.8 1 2.8L84.5 151c-.3 1.2-1.4 2-2.6 2z" fill="#2196F3"/><path d="M146 136c-7 0-20.9 9-27.8 9-7 0-14.8-5.5-14.8-5.5l-15.6-3.3-3.6 13.8-.2.4c8.2 3.6 23.8 8.6 30.7 8.6 10.4 0 38.3-14.2 38.3-17.7s-3.5-5.3-7-5.3z" fill="#DEB26F"/><path d="M69 132v16.4c0 1.5 1.1 2.6 2.6 2.6h9.3a2.6 2.6 0 002.5-1.9l3.6-13.3-18-3.8z" fill="#1D83D4"/><g><g transform="translate(90 46)"><rect fill="#FEC107" x="2.5" y="33.1" width="48.3" height="43.2" rx="5.1"/><path d="M7.6 33H14V20.4a12.7 12.7 0 0125.4 0v12.8h6.4l1.2.1V20.3a20.3 20.3 0 10-40.6 0v13c.4-.2.8-.2 1.2-.2z" fill="#C3C3C3"/><path fill="#EBAF51" d="M0 43.2h15.3v22.9H0z"/><g fill="#FFF"><path d="M0 49.6h15.3V52H0zM0 57.2h15.3v2.5H0zM29.2 56.6V45.8a2.5 2.5 0 10-5 0v10.8a5 5 0 105 0z"/></g></g><path d="M152 100.8l-11-3.7h-1l-11 3.7c-.6.2-1 .8-1 1.5v8.4c0 10.3 11.4 15.3 11.9 15.5a1.6 1.6 0 001.2 0c.5-.2 11.9-5.2 11.9-15.5v-8.4c0-.7-.4-1.3-1-1.5z" fill="#4CAF50"/><path d="M147.3 108.8l-5.7 7.3a2 2 0 01-1.4.8h-.2a2 2 0 01-1.4-.5l-3.6-3.1c-.9-.8-1-2.1-.2-3 .7-.9 2-1 2.9-.2l2 1.7 4.3-5.6c.7-1 2-1 3-.4.8.8 1 2 .3 3z" fill="#FFF"/><path d="M140.5 97h-.5l-11 3.8c-.6.2-1 .8-1 1.5v8.4c0 10.3 11.4 15.3 11.9 15.5l.6.1v-9.5a2 2 0 01-.3 0h-.2a2 2 0 01-1.4-.4l-3.6-3.2a2 2 0 011.3-3.6c.5 0 1 .1 1.4.5l2 1.7.8-1V97z" fill="#429846"/><path d="M136.3 109.7a2 2 0 00-1.5.7 2 2 0 00.2 3l3.6 3c.4.3.9.5 1.4.5h.5v-6l-.8 1-2-1.7a2 2 0 00-1.4-.5z" fill="#DEDEDE"/></g></g></g></svg>
