<svg xmlns="http://www.w3.org/2000/svg" xmlns:xlink="http://www.w3.org/1999/xlink" width="64" height="42" viewBox="0 0 64 42">
  <defs>
    <polygon id="ahp_logo-color-a" points="0 0 64 0 64 42 0 42"/>
  </defs>
  <g fill="none" fill-rule="evenodd">
    <mask id="ahp_logo-color-b" fill="#fff">
      <use xlink:href="#ahp_logo-color-a"/>
    </mask>
    <path fill="#4A90E2" d="M13.5258247,22.9093174 C13.2548513,22.83251 13.1646867,22.7799575 13.0793181,22.7869106 C11.940111,22.8787561 10.7945092,22.9293682 9.66457426,23.0904214 C8.44959049,23.2636021 7.20678998,23.4139831 6.05319486,23.8062672 C4.53206714,24.3237071 3.92553445,25.8897714 4.33047576,27.711645 C4.66619496,29.2228929 5.53666689,29.885216 7.24947428,29.7964427 C9.67544517,29.6708018 11.5353295,28.3354835 13.2482968,26.7519556 C13.4212721,26.592196 13.5061611,26.2603877 13.5136748,26.0049017 C13.5432501,24.9941152 13.5258247,23.9820351 13.5258247,22.9093174 Z M26.220167,12.3402838 C28.0274554,11.5909661 29.5724032,10.7336328 31.22606,10.303996 C36.8810102,8.83479003 40.3659353,11.5950086 40.4570591,17.5261636 C40.5096551,20.9595392 40.5190872,24.3956636 40.4401133,27.8280689 C40.4095788,29.1546555 40.6175649,29.9950103 42.1604344,29.8878032 C42.5569028,29.8601525 42.9666401,30.0276737 43.4567901,30.1224299 C43.4567901,30.8958408 43.4567901,31.6566392 43.4567901,32.521249 C40.2266918,32.521249 37.040237,32.521249 33.7386784,32.521249 C33.7386784,31.7538209 33.7386784,30.9930225 33.7386784,30.2065139 C33.7818423,30.1667357 33.8373159,30.0729497 33.9114939,30.0538691 C36.4217143,29.4054522 36.4468133,29.4062607 36.4154795,26.6646376 C36.3785504,23.4194809 36.3966153,20.1685029 36.1967825,16.9322396 C36.0281235,14.1993484 34.5914052,12.9906411 31.9774316,13.590548 C30.1578335,14.008219 28.4659686,15.0403499 26.7637124,15.8931556 C26.4801096,16.0354516 26.3039369,16.6638177 26.30026,17.0696846 C26.2657289,20.7819926 26.3082533,24.4951091 26.2634908,28.2072554 C26.2502219,29.3001855 26.5744307,29.8232849 27.7216312,29.8554632 C28.5387078,29.8782629 29.4742453,29.8310465 29.426765,31.2321768 C29.389676,32.3247835 29.0809742,32.661928 27.996761,32.6460814 C24.0084169,32.5880311 20.017515,32.5712143 16.0299702,32.6527111 C14.7083556,32.679715 13.9195753,32.4237439 13.9899165,30.9186405 C14.0023861,30.6536143 13.8765713,30.3817966 13.8663399,30.3374908 C11.9754414,31.1964411 10.1336219,32.2138573 8.17158302,32.8546743 C7.04724343,33.221895 5.70500609,33.1423386 4.50073335,32.9735238 C2.07923871,32.6342773 0.660745155,31.140978 0.179707499,28.7476567 C-0.402685382,25.8504783 0.435173825,23.0166862 2.62486235,21.8904459 C4.21281417,21.0735376 6.05143633,20.6637899 7.82579224,20.3347305 C9.65897894,19.9946754 11.5495576,19.9715523 13.5964856,19.7941675 C13.4997665,18.2748345 13.4833002,16.8879338 13.3034507,15.523186 C13.1435844,14.3099511 12.3853386,13.5006428 11.1599635,13.3032071 C10.2153136,13.1512091 9.24444566,12.9974325 8.29819712,13.0564529 C5.83050112,13.2102296 5.32676245,13.7179675 4.83133683,16.3640259 C3.65807816,16.2440445 2.46419673,16.1221227 1.29365578,16.0024648 C0.916691079,13.5126086 2.18043407,11.3974112 4.66459629,10.6079919 C7.7031748,9.6423197 10.8176898,9.6353666 13.8772108,10.5213208 C16.0982331,11.1644016 17.3467888,13.0076196 17.4083373,15.754417 C17.4989815,19.7898016 17.5135293,23.829552 17.4380724,27.8649365 C17.4116945,29.2798113 17.8241495,29.9678447 19.2527146,29.9000924 C19.3422398,29.8958882 19.432884,29.9367983 19.5240077,29.943428 C21.9130495,30.1154768 22.2099212,29.8389698 22.2097613,27.4469421 C22.2096015,20.2071492 22.2099212,12.967518 22.2096015,5.72788674 C22.2096015,3.46554241 22.2084824,3.46699771 20.1166321,2.77007082 C19.8191209,2.67094874 19.5294432,2.54773336 19.2766946,2.45119847 C19.2292143,2.291924 19.1679855,2.19862311 19.1830129,2.12019863 C19.5885937,-0.00114332796 19.5898726,-0.00486242735 21.7143357,0.000473671781 C23.090145,0.0040310712 24.4659542,0.0192308687 25.8417635,0.0368561659 C25.9229756,0.0378263657 26.0033883,0.105416955 26.220167,0.203568839 C26.220167,4.20063049 26.220167,8.25929983 26.220167,12.3402838 Z" mask="url(#ahp_logo-color-b)"/>
    <path fill="#4A90E2" d="M59.9546381,21.955823 C59.8069186,20.584304 59.7124414,19.4364145 59.5471852,18.2991357 C59.4754583,17.8057361 59.2882416,17.3218219 59.101183,16.85511 C58.2510457,14.7329612 56.6953308,13.6185116 54.5251977,14.0709151 C52.841038,14.4220343 51.229395,15.2286116 49.660567,15.9924244 C49.2381052,16.1980477 48.8703075,16.9790627 48.8529287,17.5086353 C48.7698266,20.0423523 48.989115,22.5964869 48.7635071,25.1120369 C48.5657052,27.3148916 49.5578744,28.4539389 51.3147089,29.2502269 C51.7689265,29.4560111 52.223934,29.6733705 52.6986901,29.8169371 C55.83761,30.7656341 58.3641656,29.4325388 59.2387912,26.2364542 C59.6356588,24.7856762 59.745935,23.2537099 59.9546381,21.955823 Z M48.8221209,31.5062961 C48.8221209,33.9168641 48.7849936,36.0820989 48.86225,38.2431537 C48.8737832,38.5664598 49.3701838,39.0100211 49.7338738,39.1482823 C50.2250607,39.3350957 50.8045634,39.2841319 51.3467807,39.3281826 C53.582479,39.5095299 53.6377751,39.5857343 53.1832415,42 C49.6809476,42 46.1630128,42 42.4837715,42 C42.4597572,41.5183365 42.4565974,41.0320108 42.406357,40.5508297 C42.3251508,39.7723869 42.5624498,39.2958681 43.414799,39.3149996 C44.6390536,39.342491 44.856604,38.642182 44.8502845,37.5320731 C44.8096814,30.3358989 44.801782,23.1390817 44.8562881,15.9432291 C44.8656094,14.7138297 44.4997075,14.1109466 43.3185839,13.8066112 C41.8349118,13.4243029 41.5350492,12.6770493 42.2403108,11.3515102 C42.378709,11.0913862 42.8934362,10.9317427 43.2433812,10.914862 C44.3742645,10.8603614 45.5128892,10.9511958 46.6414026,10.8764382 C47.6405233,10.8103623 48.204069,11.0675924 48.1576204,12.205675 C48.1435594,12.5463442 48.3336198,12.8956949 48.4606427,13.3492238 C50.9668178,11.4962021 53.5925903,10.2786997 56.70639,10.5336791 C59.5963196,10.7703308 61.7438603,12.1534252 62.7739468,14.9016078 C64.5486341,19.6367325 64.3926992,24.4388978 62.3322103,29.0182375 C60.3573513,33.4070661 54.9740437,34.8914449 50.557943,32.522516 C50.0482714,32.2490482 49.5577164,31.9384428 48.8221209,31.5062961 Z" mask="url(#ahp_logo-color-b)"/>
  </g>
</svg>
