<svg xmlns="http://www.w3.org/2000/svg" xmlns:xlink="http://www.w3.org/1999/xlink" width="40" height="40" viewBox="0 0 40 40">
  <defs>
    <path id="m-avatar-a" d="M8.5,0 C11.4340273,0 13.8125,2.37847266 13.8125,5.3125 C13.8125,8.24652734 11.4340273,10.625 8.5,10.625 C5.56597266,10.625 3.1875,8.24652734 3.1875,5.3125 C3.1875,2.37847266 5.56597266,0 8.5,0 Z M14.5855684,11.0839004 L12.2177539,10.4919551 C9.73007617,12.2812715 6.71473438,11.8819707 4.78224609,10.4919551 L2.41443164,11.0839004 C0.995462891,11.4386426 0,12.7135762 0,14.1762402 L0,15.40625 C0,16.2864648 0.713535156,17 1.59375,17 L15.40625,17 C16.2864648,17 17,16.2864648 17,15.40625 L17,14.1762402 C17,12.7135762 16.0045371,11.4386426 14.5855684,11.0839004 Z"/>
  </defs>
  <g fill="none" fill-rule="evenodd">
    <circle cx="20" cy="20" r="20" fill="#EEE"/>
    <g transform="translate(11 11)">
      <mask id="m-avatar-b" fill="#fff">
        <use xlink:href="#m-avatar-a"/>
      </mask>
      <use fill="#000" fill-rule="nonzero" xlink:href="#m-avatar-a"/>
      <g fill="#D8D8D8" mask="url(#m-avatar-b)">
        <polygon points="0 0 17 0 17 17 0 17"/>
      </g>
    </g>
  </g>
</svg>
