<svg xmlns="http://www.w3.org/2000/svg" xmlns:xlink="http://www.w3.org/1999/xlink" width="25" height="25" viewBox="0 0 25 25"><defs><path id="a" d="M12.02206 12.11765v-4.7348c0-.2804.2518-.52256.57353-.52256.32173 0 .57353.22942.57353.52255v4.7348h4.7348c.29314 0 .52255.2518.52255.57354 0 .32173-.22941.57353-.52255.57353h-4.7348v4.7348c0 .29314-.2518.52255-.57353.52255-.32174 0-.57353-.22941-.57353-.52255v-4.7348h-4.7348c-.2804 0-.52255-.2518-.52255-.57353 0-.32174.2294-.57353.52254-.57353h4.7348z"/></defs><g><circle cx="12.5" cy="12.5" r="12.5"/><mask id="b" fill="#fff"><use xlink:href="#a"/></mask><use fill="#000" xlink:href="#a"/><path fill="#FFF" d="M9 6h7c1.65685 0 3 1.34315 3 3v7c0 1.65685-1.34315 3-3 3H9c-1.65685 0-3-1.34315-3-3V9c0-1.65685 1.34315-3 3-3z" mask="url(#b)"/></g></svg>