<svg xmlns="http://www.w3.org/2000/svg" xmlns:xlink="http://www.w3.org/1999/xlink" width="20" height="14" viewBox="0 0 20 14">
  <defs>
    <path id="communications-a" d="M29.25,15 L27.75,15 C27.5279063,15 27.3284375,15.0965938 27.191125,15.25 L26.4559375,15.25 L25.483125,14.115625 L25.478125,14.11 C24.8610648,13.4045454 23.9694331,12.9999107 23.0321875,13 L21.5775,13 C21.0228125,13 20.486875,13.154375 20.0246875,13.4378125 C19.5103125,13.1540625 18.9271875,13 18.331875,13 L17.3284375,13 C16.4252187,13 15.5284688,13.3505938 14.8534375,14.025 L13.62875,15.25 L12.808875,15.25 C12.6715625,15.0965938 12.4720937,15 12.25,15 L10.75,15 C10.3357813,15 10,15.3357813 10,15.75 L10,23.25 C10,23.6642188 10.3357813,24 10.75,24 L12.25,24 C12.5765313,24 12.8541875,23.79125 12.9571563,23.5 L13.5446875,23.5 L15.899375,25.6115625 C16.6975625,26.438125 17.7720312,27 18.9175,27 C19.4296875,27 19.92625,26.8796875 20.358125,26.6584375 C21.137375,26.6739375 21.9550313,26.3344375 22.5165625,25.676875 C23.1316875,25.5025313 23.6885313,25.1323125 24.1015625,24.595625 C24.7574688,24.4580938 25.3743125,24.08025 25.7709375,23.5 L27.0428437,23.5 C27.1458125,23.79125 27.4234687,24 27.75,24 L29.25,24 C29.6642187,24 30,23.6642188 30,23.25 L30,15.75 C30,15.3357813 29.6642187,15 29.25,15 Z M11.5,23 C11.2238438,23 11,22.7761563 11,22.5 C11,22.2238438 11.2238438,22 11.5,22 C11.7761562,22 12,22.2238438 12,22.5 C12,22.7761563 11.7761562,23 11.5,23 Z M24.39125,22.82 C23.9115625,23.2667188 23.238625,23.174 23.1428125,23.07 C23.187,23.4881875 22.5722813,24.3525938 21.6090625,24.285 C21.4359063,24.8638438 20.72725,25.3420625 20,25.0896875 C19.7221875,25.3675 19.298125,25.5 18.9175,25.5 C18.1378125,25.5 17.4246875,25.045625 16.944375,24.5340625 L14.40375,22.255625 C14.220378,22.0910311 13.9826571,21.9999938 13.73625,22 L13,22 L13,16.75 L13.8359375,16.75 C14.1009375,16.75 14.3553125,16.6446875 14.5428125,16.4571875 L15.9140625,15.0859375 C16.2891579,14.7107814 16.7979296,14.500011 17.3284375,14.5 L18.331875,14.5 C18.513125,14.5 18.6915625,14.5246875 18.863125,14.571875 L17.5109375,16.1496875 C16.7746875,17.0084375 16.7659375,18.2628125 17.4903125,19.1321875 C18.5024375,20.34675 20.345875,20.3580625 21.3803125,19.1940625 L22.1921875,18.2540625 L24.4559375,21.25 C24.8759375,21.70625 24.798125,22.4415625 24.39125,22.82 Z M27,22 L26.2356875,22 C26.2389375,21.3668438 26.0232188,20.7709375 25.618125,20.3 L23.178125,17.07125 C23.3190625,16.7740625 23.25125,16.4078125 22.9903125,16.1821875 C22.6754688,15.9105938 22.201875,15.9478438 21.9321875,16.2596875 L20.25625,18.2009375 C19.824125,18.6825 19.0617813,18.6742188 18.6425,18.171875 C18.3884822,17.8684959 18.3915243,17.4257971 18.6496875,17.1259375 L20.4596875,15.0140625 C20.7393424,14.687692 21.1477041,14.4998936 21.5775,14.5 L23.0321875,14.5 C23.535625,14.5 24.0146875,14.716875 24.346875,15.095 L25.76625,16.75 L27,16.75 L27,22 Z M28.5,23 C28.2238438,23 28,22.7761563 28,22.5 C28,22.2238438 28.2238438,22 28.5,22 C28.7761562,22 29,22.2238438 29,22.5 C29,22.7761563 28.7761562,23 28.5,23 Z"/>
  </defs>
  <g fill-rule="evenodd" transform="translate(-10 -13)">
    <use fill-rule="nonzero" xlink:href="#communications-a"/>
  </g>
</svg>
