<?xml version="1.0" encoding="UTF-8"?><svg width="20" height="18" viewBox="0 0 17 15" xmlns="http://www.w3.org/2000/svg" xmlns:xlink="http://www.w3.org/1999/xlink"><!--Generator: Sketch 64 (93537) - https://sketch.com--><defs><path d="M9.4 2.21a.3.3 0 01.22.09.3.3 0 01.09.22v.6a.3.3 0 01-.09.22.3.3 0 01-.22.09H2.73c-.42 0-.77.15-1.07.44-.3.3-.45.66-.45 1.07v7.89c0 .42.15.77.45 1.07.3.3.65.45 1.07.45h7.89c.41 0 .77-.15 1.07-.45.3-.3.44-.65.44-1.07V9.8a.3.3 0 01.3-.3h.61a.3.3 0 01.22.08.3.3 0 01.09.22v3.03c0 .75-.27 1.4-.8 1.93-.54.53-1.18.8-1.93.8H2.73c-.75 0-1.4-.27-1.93-.8a2.63 2.63 0 01-.8-1.93V4.94c0-.75.27-1.4.8-1.93.54-.53 1.18-.8 1.93-.8zM16.38 1c.16 0 .3.06.43.18.12.12.18.26.18.43v4.85c0 .16-.06.3-.18.43a.58.58 0 01-.43.18.58.58 0 01-.43-.18L14.3 5.22 8.1 11.4a.3.3 0 01-.44 0l-1.08-1.08a.3.3 0 010-.44l6.18-6.18-1.67-1.67a.58.58 0 01-.18-.42c0-.17.06-.31.18-.43a.58.58 0 01.43-.18z" id="a"/></defs><g transform="translate(0 -1)" fill="none" fill-rule="evenodd"><mask id="b" fill="#fff"><use xlink:href="#a"/></mask><use fill="#000" fill-rule="nonzero" xlink:href="#a"/><g mask="url(#b)" fill="#4A90E2"><path d="M0 0h17v17H0z"/></g></g></svg>
