<svg xmlns="http://www.w3.org/2000/svg" xmlns:xlink="http://www.w3.org/1999/xlink" width="18" height="20" viewBox="0 0 18 20">
  <defs>
    <path id="period-a" d="M28.5178571,15.25 L11.4821429,15.25 C11.2169643,15.25 11,15.0390625 11,14.78125 L11,13.375 C11,12.3398438 11.8638393,11.5 12.9285714,11.5 L14.8571429,11.5 L14.8571429,9.46875 C14.8571429,9.2109375 15.0741071,9 15.3392857,9 L16.9464286,9 C17.2116071,9 17.4285714,9.2109375 17.4285714,9.46875 L17.4285714,11.5 L22.5714286,11.5 L22.5714286,9.46875 C22.5714286,9.2109375 22.7883929,9 23.0535714,9 L24.6607143,9 C24.9258929,9 25.1428571,9.2109375 25.1428571,9.46875 L25.1428571,11.5 L27.0714286,11.5 C28.1361607,11.5 29,12.3398438 29,13.375 L29,14.78125 C29,15.0390625 28.7830357,15.25 28.5178571,15.25 Z M11.4821429,16.5 L28.5178571,16.5 C28.7830357,16.5 29,16.7109375 29,16.96875 L29,27.125 C29,28.1601562 28.1361607,29 27.0714286,29 L12.9285714,29 C11.8638393,29 11,28.1601562 11,27.125 L11,16.96875 C11,16.7109375 11.2169643,16.5 11.4821429,16.5 Z M16.1428571,24.46875 C16.1428571,24.2109375 15.9258929,24 15.6607143,24 L14.0535714,24 C13.7883929,24 13.5714286,24.2109375 13.5714286,24.46875 L13.5714286,26.03125 C13.5714286,26.2890625 13.7883929,26.5 14.0535714,26.5 L15.6607143,26.5 C15.9258929,26.5 16.1428571,26.2890625 16.1428571,26.03125 L16.1428571,24.46875 Z M16.1428571,19.46875 C16.1428571,19.2109375 15.9258929,19 15.6607143,19 L14.0535714,19 C13.7883929,19 13.5714286,19.2109375 13.5714286,19.46875 L13.5714286,21.03125 C13.5714286,21.2890625 13.7883929,21.5 14.0535714,21.5 L15.6607143,21.5 C15.9258929,21.5 16.1428571,21.2890625 16.1428571,21.03125 L16.1428571,19.46875 Z M21.2857143,24.46875 C21.2857143,24.2109375 21.06875,24 20.8035714,24 L19.1964286,24 C18.93125,24 18.7142857,24.2109375 18.7142857,24.46875 L18.7142857,26.03125 C18.7142857,26.2890625 18.93125,26.5 19.1964286,26.5 L20.8035714,26.5 C21.06875,26.5 21.2857143,26.2890625 21.2857143,26.03125 L21.2857143,24.46875 Z M21.2857143,19.46875 C21.2857143,19.2109375 21.06875,19 20.8035714,19 L19.1964286,19 C18.93125,19 18.7142857,19.2109375 18.7142857,19.46875 L18.7142857,21.03125 C18.7142857,21.2890625 18.93125,21.5 19.1964286,21.5 L20.8035714,21.5 C21.06875,21.5 21.2857143,21.2890625 21.2857143,21.03125 L21.2857143,19.46875 Z M26.4285714,24.46875 C26.4285714,24.2109375 26.2116071,24 25.9464286,24 L24.3392857,24 C24.0741071,24 23.8571429,24.2109375 23.8571429,24.46875 L23.8571429,26.03125 C23.8571429,26.2890625 24.0741071,26.5 24.3392857,26.5 L25.9464286,26.5 C26.2116071,26.5 26.4285714,26.2890625 26.4285714,26.03125 L26.4285714,24.46875 Z M26.4285714,19.46875 C26.4285714,19.2109375 26.2116071,19 25.9464286,19 L24.3392857,19 C24.0741071,19 23.8571429,19.2109375 23.8571429,19.46875 L23.8571429,21.03125 C23.8571429,21.2890625 24.0741071,21.5 24.3392857,21.5 L25.9464286,21.5 C26.2116071,21.5 26.4285714,21.2890625 26.4285714,21.03125 L26.4285714,19.46875 Z"/>
  </defs>
  <g fill-rule="evenodd" transform="translate(-11 -9)">
    <use fill-rule="nonzero" xlink:href="#period-a"/>
  </g>
</svg>
