<svg xmlns="http://www.w3.org/2000/svg" xmlns:xlink="http://www.w3.org/1999/xlink" width="20" height="16" viewBox="0 0 20 16">
  <defs>
    <path id="products-a" d="M29.25,21 L27.75,21 L27.75,19.5 C27.75,18.81075 27.18925,18.25 26.5,18.25 L20.75,18.25 L20.75,17 L22.25,17 C22.6642187,17 23,16.6642187 23,16.25 L23,11.75 C23,11.3357813 22.6642187,11 22.25,11 L17.75,11 C17.3357813,11 17,11.3357813 17,11.75 L17,16.25 C17,16.6642187 17.3357813,17 17.75,17 L19.25,17 L19.25,18.25 L13.5,18.25 C12.81075,18.25 12.25,18.81075 12.25,19.5 L12.25,21 L10.75,21 C10.3357813,21 10,21.3357813 10,21.75 L10,26.25 C10,26.6642187 10.3357813,27 10.75,27 L15.25,27 C15.6642187,27 16,26.6642187 16,26.25 L16,21.75 C16,21.3357813 15.6642187,21 15.25,21 L13.75,21 L13.75,19.75 L19.25,19.75 L19.25,21 L17.75,21 C17.3357813,21 17,21.3357813 17,21.75 L17,26.25 C17,26.6642187 17.3357813,27 17.75,27 L22.25,27 C22.6642187,27 23,26.6642187 23,26.25 L23,21.75 C23,21.3357813 22.6642187,21 22.25,21 L20.75,21 L20.75,19.75 L26.25,19.75 L26.25,21 L24.75,21 C24.3357813,21 24,21.3357813 24,21.75 L24,26.25 C24,26.6642187 24.3357813,27 24.75,27 L29.25,27 C29.6642187,27 30,26.6642187 30,26.25 L30,21.75 C30,21.3357813 29.6642187,21 29.25,21 Z"/>
  </defs>
  <g fill-rule="evenodd" transform="translate(-10 -11)">
    <use fill-rule="nonzero" xlink:href="#products-a"/>
  </g>
</svg>
