<svg xmlns="http://www.w3.org/2000/svg" xmlns:xlink="http://www.w3.org/1999/xlink" width="20" height="22" viewBox="0 0 20 22">
  <defs>
    <path id="schoolinfo-a" d="M29.4642857,29.625 L28.5714286,29.625 L28.5714286,10.03125 C28.5714286,9.46169922 28.0917411,9 27.5,9 L12.5,9 C11.9082589,9 11.4285714,9.46169922 11.4285714,10.03125 L11.4285714,29.625 L10.5357143,29.625 C10.2398661,29.625 10,29.8558711 10,30.140625 L10,31 L30,31 L30,30.140625 C30,29.8558711 29.7601339,29.625 29.4642857,29.625 Z M15.4545455,12.265625 C15.4545455,11.9808711 15.6835085,11.75 15.9659091,11.75 L17.6704545,11.75 C17.9528551,11.75 18.1818182,11.9808711 18.1818182,12.265625 L18.1818182,13.984375 C18.1818182,14.2691289 17.9528551,14.5 17.6704545,14.5 L15.9659091,14.5 C15.6835085,14.5 15.4545455,14.2691289 15.4545455,13.984375 L15.4545455,12.265625 Z M15.4545455,16.8489583 C15.4545455,16.5642044 15.6835085,16.3333333 15.9659091,16.3333333 L17.6704545,16.3333333 C17.9528551,16.3333333 18.1818182,16.5642044 18.1818182,16.8489583 L18.1818182,18.5677083 C18.1818182,18.8524622 17.9528551,19.0833333 17.6704545,19.0833333 L15.9659091,19.0833333 C15.6835085,19.0833333 15.4545455,18.8524622 15.4545455,18.5677083 L15.4545455,16.8489583 Z M17.6704545,22.75 L15.9659091,22.75 C15.6835085,22.75 15.4545455,22.5191289 15.4545455,22.234375 L15.4545455,20.515625 C15.4545455,20.2308711 15.6835085,20 15.9659091,20 L17.6704545,20 C17.9528551,20 18.1818182,20.2308711 18.1818182,20.515625 L18.1818182,22.234375 C18.1818182,22.5191289 17.9528551,22.75 17.6704545,22.75 Z M21.8181818,30.0833333 L19.0909091,30.0833333 L19.0909091,26.0729167 C19.0909091,25.7565234 19.3198722,25.5 19.6022727,25.5 L21.3068182,25.5 C21.5892188,25.5 21.8181818,25.7565234 21.8181818,26.0729167 L21.8181818,30.0833333 Z M23.6363636,22.234375 C23.6363636,22.5191289 23.4074006,22.75 23.125,22.75 L21.4204545,22.75 C21.138054,22.75 20.9090909,22.5191289 20.9090909,22.234375 L20.9090909,20.515625 C20.9090909,20.2308711 21.138054,20 21.4204545,20 L23.125,20 C23.4074006,20 23.6363636,20.2308711 23.6363636,20.515625 L23.6363636,22.234375 Z M23.6363636,18.5677083 C23.6363636,18.8524622 23.4074006,19.0833333 23.125,19.0833333 L21.4204545,19.0833333 C21.138054,19.0833333 20.9090909,18.8524622 20.9090909,18.5677083 L20.9090909,16.8489583 C20.9090909,16.5642044 21.138054,16.3333333 21.4204545,16.3333333 L23.125,16.3333333 C23.4074006,16.3333333 23.6363636,16.5642044 23.6363636,16.8489583 L23.6363636,18.5677083 Z M23.6363636,13.984375 C23.6363636,14.2691289 23.4074006,14.5 23.125,14.5 L21.4204545,14.5 C21.138054,14.5 20.9090909,14.2691289 20.9090909,13.984375 L20.9090909,12.265625 C20.9090909,11.9808711 21.138054,11.75 21.4204545,11.75 L23.125,11.75 C23.4074006,11.75 23.6363636,11.9808711 23.6363636,12.265625 L23.6363636,13.984375 Z"/>
  </defs>
  <g fill-rule="evenodd" transform="translate(-10 -9)">
    <use fill-rule="nonzero" xlink:href="#schoolinfo-a"/>
  </g>
</svg>
