<svg xmlns="http://www.w3.org/2000/svg" width="23" height="22" viewBox="0 0 23 22"><path fill="#0076FF" fill-rule="evenodd" d="M4.53 2.86a10.8 10.8 0 0115.13.48 10.55 10.55 0 01-.6 15 10.8 10.8 0 01-15.15-.46.74.74 0 01.04-1.05.76.76 0 011.06.03 9.3 9.3 0 0013.03.4 9.08 9.08 0 00.52-12.9 9.3 9.3 0 00-13.04-.4C5.5 4 4.3 5.03 3.47 6.41l1.73-.66c.38-.15.82.04.96.42a.75.75 0 01-.43.96l-3.37 1.3H2.3l-.04.02h-.05a.7.7 0 01-.3 0 .71.71 0 01-.26-.13l-.05-.03-.02-.03-.03-.02-.04-.06-.06-.08-.03-.07a.72.72 0 01-.05-.11V7.9L.52 4.12c-.1-.4.16-.8.57-.9.4-.08.8.16.9.56l.35 1.62a12.5 12.5 0 012.19-2.54zm5.5 8.26h-.01V6.44c0-.41.33-.75.75-.75.41 0 .75.32.75.73v4.17l5.67 2.24c.38.16.56.59.4.97a.76.76 0 01-.97.41l-6.13-2.42-.04-.03a.74.74 0 01-.17-.11l-.06-.05a.73.73 0 01-.14-.21l-.01-.05a.72.72 0 01-.05-.23z"/></svg>
