<svg xmlns="http://www.w3.org/2000/svg" xmlns:xlink="http://www.w3.org/1999/xlink" width="12" height="20" viewBox="0 0 12 20">
  <defs>
    <path id="financial-a" d="M17.5691375,16.6162109 C17.5691375,15.7046094 18.4440375,15.1155469 19.7980281,15.1155469 C20.8837719,15.1155469 21.9964906,15.5945703 22.9042563,16.2223047 C23.1431313,16.3875 23.4782875,16.3142578 23.6182406,16.0653906 L24.5750406,14.3642578 C24.6826563,14.1729297 24.6398781,13.9349219 24.4704313,13.7908203 C23.4840156,12.951875 22.0680719,12.4591797 20.7618156,12.3140234 L20.7618156,10.46875 C20.7618156,10.2098828 20.5435375,10 20.2743156,10 L18.6493156,10 C18.3800938,10 18.1618156,10.2098828 18.1618156,10.46875 L18.1618156,12.4153125 C15.7800938,12.9344531 14.2090438,14.5995703 14.2090438,16.6590234 C14.2090438,21.4845313 21.7151219,20.9875391 21.7151219,23.2767578 C21.7151219,24.0510937 21.0524875,24.8844922 19.5975844,24.8844922 C18.348325,24.8844922 17.0409719,24.2641797 16.0287594,23.4826563 C15.8130406,23.3160938 15.4973031,23.3531641 15.331675,23.56625 L14.0971219,25.1548047 C13.949775,25.3444141 13.9722,25.6101563 14.1500156,25.7738281 C15.1270063,26.6730469 16.5570063,27.3853516 18.161775,27.6477734 L18.161775,29.53125 C18.161775,29.7901172 18.3800531,30 18.649275,30 L20.274275,30 C20.5434969,30 20.761775,29.7901172 20.761775,29.53125 L20.761775,27.6782031 C23.43165,27.2791797 25.075175,25.36625 25.075175,23.1267969 C25.0752156,18.4514844 17.5691375,19.0757422 17.5691375,16.6162109 Z"/>
  </defs>
  <g fill-rule="evenodd" transform="translate(-14 -10)">
    <use fill-rule="nonzero" xlink:href="#financial-a"/>
  </g>
</svg>
