<?xml version="1.0" encoding="UTF-8"?><svg width="24" height="17" viewBox="0 0 24 17" xmlns="http://www.w3.org/2000/svg"><g fill-rule="nonzero" fill="none"><path d="M21.73 7.27H2.2a.76.76 0 01-.76-.76V.76c0-.42.34-.76.76-.76h7.95c.42 0 .76.34.76.76v.96h10.82c.42 0 .77.35.77.77V6.5c0 .42-.35.76-.77.76z" fill="#FFC733"/><path d="M21.73 1.72h-9.76v5.55h9.76c.42 0 .77-.34.77-.76V2.49a.76.76 0 00-.77-.77z" fill="#FFAF00"/><path d="M22.3 16.46H1.63c-.4 0-.72-.3-.76-.69L0 6.58a.76.76 0 01.76-.84h22.4c.46 0 .81.4.77.84l-.88 9.2c-.04.38-.36.68-.76.68z" fill="#FFE365"/><path d="M23.17 5.74h-11.2v10.72h10.32c.4 0 .72-.3.76-.69l.88-9.19a.76.76 0 00-.76-.84z" fill="#FFC733"/></g></svg>
