<?xml version="1.0" encoding="UTF-8"?><svg width="20" height="21" viewBox="0 0 20 21" xmlns="http://www.w3.org/2000/svg"><g fill="#4A90E2" fill-rule="nonzero"><path d="M19.57 9.82l-2.24-1.5c-.4-.27-.96 0-.96.48v.91H5.6a.6.6 0 00-.61.59c0 .32.27.58.61.58h10.76v.92c0 .47.56.74.96.47l2.24-1.5a.57.57 0 000-.95z"/><path d="M18.67 14.33a.66.66 0 00-.88.24 8.85 8.85 0 01-7.66 4.36A8.78 8.78 0 011.3 10.2c0-4.8 3.96-8.71 8.83-8.71a8.85 8.85 0 017.66 4.35c.18.31.57.42.88.24a.64.64 0 00.24-.88c-1.76-3-5.04-5-8.78-5C4.53.21 0 4.68 0 10.21s4.53 10 10.13 10c3.74 0 7.03-2 8.78-5 .18-.3.08-.7-.24-.88z"/></g></svg>
