<?xml version="1.0" encoding="UTF-8"?>
<svg width="80px" height="80px" viewBox="0 0 80 80" version="1.1" xmlns="http://www.w3.org/2000/svg" xmlns:xlink="http://www.w3.org/1999/xlink">
    <title>Atoms/Icons/Others/Student Inactive</title>
    <g id="Atoms/Icons/Others/Student-Inactive" stroke="none" stroke-width="1" fill="none" fill-rule="evenodd">
        <circle id="Oval" stroke="#FD263E" fill="#FFFFFF" stroke-linecap="round" stroke-linejoin="round" cx="40" cy="40" r="39"></circle>
        <path d="M60.5455368,55.8550375 C58.0282136,52.1129436 53.1345451,49.6262555 48.801891,49.0279837 C48.3847511,48.9864906 47.9531272,49.0839511 47.6779308,49.2914163 C45.1615732,51.1566735 43.1280164,52.1409272 39.9647057,52.1409272 C36.7984983,52.1409272 34.7659071,51.1566735 32.2553431,49.2952761 C32.0042867,49.106145 31.683707,49 31.3891985,49 C31.3138816,49 31.2404959,49.0067547 31.170007,49.020264 L31.1265549,49.0279837 C26.7330679,49.6349401 21.8422962,52.1187333 19.3915995,55.8424931 C18.9252139,56.5169964 18.4820028,57.3304531 18.1343863,58.1448748 C18.0310669,58.3687442 17.9596124,59.0615816 18.0252733,59.2690469 C19.7160416,64.3215492 30.8243216,71 39.9067696,71 C49.3416622,71 58.6828915,64.878328 61.9273126,59.2072898 L61.9978015,59.1050046 C62.016148,58.9930699 61.916691,58.395763 61.8104748,58.183473 C61.4869983,57.375806 61.0814457,56.6327909 60.5455368,55.8550375" id="Fill-1" fill="#FD263E"></path>
        <path d="M60.9860915,39.0741348 C62.2093332,38.4729753 63,37.1964746 63,35.8226708 C63,34.3082111 62.0555925,32.9450046 60.6509175,32.4315142 L60.1534086,32.2494322 L60.0435938,23.8717339 L61.6640787,23.1867588 L39.320103,13.9998073 L17,23.1780883 L29.828282,28.0596197 C29.0328407,29.6916138 28.5735282,31.5201408 28.5735282,33.4575317 C28.5735282,40.2311744 33.0797559,45.7408404 39.7937391,45.7408404 C46.5067674,45.7408404 51.01395,40.2311744 51.01395,33.4575317 C51.01395,31.3987528 50.5021174,29.4584718 49.6111849,27.7522961 L58.7095823,24.4179799 L58.8337208,32.2436518 L58.3199784,32.4315142 C56.9153035,32.9450046 55.970896,34.3082111 55.970896,35.8226708 C55.970896,37.2186327 56.7434194,38.4643047 57.9848045,39.0741348 L58.5863987,39.3689342 L56.2430458,46.5712884 L57.4987545,47 L59.4859254,40.8901377 L61.4730964,47 L62.7278502,46.5712884 L60.3844972,39.3689342 L60.9860915,39.0741348 Z" id="Fill-3" fill="#FD263E"></path>
    </g>
</svg>