<svg xmlns="http://www.w3.org/2000/svg" xmlns:xlink="http://www.w3.org/1999/xlink" width="20" height="16" viewBox="0 0 20 16">
  <defs>
    <path id="technology-a" d="M26,14 L26,22 L14,22 L14,14 L26,14 Z M26.5,12 L13.5,12 C12.671875,12 12,12.671875 12,13.5 L12,22.5 C12,23.328125 12.671875,24 13.5,24 L26.5,24 C27.328125,24 28,23.328125 28,22.5 L28,13.5 C28,12.671875 27.328125,12 26.5,12 Z M29.625,25 L22.171875,25 C22.078125,25 22,25.065625 21.9875,25.159375 C21.9125,25.634375 21.5,26 21,26 L19,26 C18.5,26 18.0875,25.634375 18.0125,25.159375 C17.996875,25.06875 17.91875,25 17.828125,25 L10.375,25 C10.16875,25 10,25.16875 10,25.375 L10,26.5 C10,27.328125 10.671875,28 11.5,28 L28.5,28 C29.328125,28 30,27.328125 30,26.5 L30,25.375 C30,25.16875 29.83125,25 29.625,25 Z"/>
  </defs>
  <g fill-rule="evenodd" transform="translate(-10 -12)">
    <use fill-rule="nonzero" xlink:href="#technology-a"/>
  </g>
</svg>
