<?xml version="1.0" encoding="UTF-8"?><svg width="22" height="19" viewBox="0 0 22 19" xmlns="http://www.w3.org/2000/svg"><g fill="none" fill-rule="evenodd"><path d="M10.3 7.27l3.28 3.18-3.27-3.18h0zm0 11.02V7.43m0-.16l-3.26 3.18" stroke="#3372CD" stroke-linecap="round" stroke-linejoin="round"/><path d="M17.27 5.98C16.67 3.44 14.82.1 10.69.1 7.5.1 5.95 1.53 5.2 2.73a5.55 5.55 0 00-.65 1.5C2.56 4.8 0 6.42 0 9.83a5.8 5.8 0 003.81 5.61c1.68.7 3.3.73 3.48.73h.48V14.7H7.3s-5.83 0-5.83-4.86c0-3.9 4.37-4.38 4.37-4.38s0-3.9 4.86-3.9c4.85 0 5.34 5.84 5.34 5.84s.15-.02.4-.02c1 0 3.48.31 3.48 3.43 0 3.9-5.82 3.9-5.82 3.9h-.98v1.46h.98c2.52 0 7.28-1.12 7.28-5.36a4.52 4.52 0 00-4.1-4.83" fill="#3372CD" fill-rule="nonzero"/></g></svg>
